<svg width="102" height="64" viewBox="0 0 102 64" fill="none" xmlns="http://www.w3.org/2000/svg">
<path d="M24.6606 21.8379C26.8407 21.8379 28.4847 22.41 29.5928 23.5542C30.7008 24.6864 31.2549 26.5111 31.2549 29.0283V42H28.292V29.1729C28.292 27.571 27.9427 26.3726 27.2441 25.5776C26.5576 24.7707 25.5339 24.3672 24.1729 24.3672C22.2578 24.3672 20.8667 24.9212 19.9995 26.0293C19.1323 27.1374 18.6987 28.7694 18.6987 30.9253V42H15.7178V29.1729C15.7178 28.1009 15.5612 27.2096 15.248 26.499C14.9469 25.7884 14.4893 25.2585 13.875 24.9092C13.2728 24.5479 12.508 24.3672 11.5806 24.3672C10.2677 24.3672 9.21387 24.6382 8.41895 25.1802C7.62402 25.7222 7.0459 26.5291 6.68457 27.6011C6.33529 28.661 6.16064 29.9678 6.16064 31.5215V42H3.16162V22.1992H5.58252L6.03418 24.9995H6.19678C6.59424 24.313 7.09408 23.7349 7.69629 23.2651C8.2985 22.7954 8.97298 22.4401 9.71973 22.1992C10.4665 21.9583 11.2614 21.8379 12.1045 21.8379C13.61 21.8379 14.8687 22.1209 15.8804 22.687C16.9041 23.241 17.6449 24.0902 18.1025 25.2344H18.2651C18.9155 24.0902 19.8068 23.241 20.939 22.687C22.0711 22.1209 23.3117 21.8379 24.6606 21.8379ZM45.0396 21.8379C46.7257 21.8379 48.1711 22.2113 49.3755 22.958C50.5799 23.7048 51.5013 24.7526 52.1396 26.1016C52.778 27.4385 53.0972 29.0042 53.0972 30.7988V32.6597H39.4209C39.457 34.9842 40.0352 36.7547 41.1553 37.9712C42.2754 39.1877 43.8532 39.7959 45.8887 39.7959C47.1413 39.7959 48.2493 39.6815 49.2129 39.4526C50.1764 39.2238 51.1761 38.8866 52.2119 38.4409V41.0786C51.2122 41.5243 50.2186 41.8494 49.231 42.0542C48.2554 42.259 47.0991 42.3613 45.7622 42.3613C43.8592 42.3613 42.1971 41.9759 40.7759 41.2051C39.3667 40.4222 38.2707 39.278 37.4878 37.7725C36.7049 36.2669 36.3135 34.4242 36.3135 32.2441C36.3135 30.1123 36.6688 28.2695 37.3794 26.7158C38.1021 25.1501 39.1138 23.9456 40.4146 23.1025C41.7274 22.2594 43.269 21.8379 45.0396 21.8379ZM45.0034 24.2949C43.4015 24.2949 42.1248 24.8188 41.1733 25.8667C40.2218 26.9146 39.6558 28.3779 39.4751 30.2568H49.9536C49.9416 29.0765 49.7549 28.0407 49.3936 27.1494C49.0443 26.2461 48.5083 25.5475 47.7856 25.0537C47.063 24.5479 46.1356 24.2949 45.0034 24.2949ZM67.5684 21.8379C69.917 21.8379 71.6935 22.416 72.8979 23.5723C74.1024 24.7165 74.7046 26.5592 74.7046 29.1006V42H71.7417V29.2993C71.7417 27.6493 71.3623 26.4147 70.6035 25.5957C69.8568 24.7767 68.7065 24.3672 67.1528 24.3672C64.9608 24.3672 63.4191 24.9875 62.5278 26.228C61.6366 27.4686 61.1909 29.2692 61.1909 31.6299V42H58.1919V22.1992H60.6128L61.0645 25.0537H61.2271C61.6486 24.3551 62.1846 23.771 62.835 23.3013C63.4854 22.8195 64.214 22.4582 65.021 22.2173C65.828 21.9644 66.6771 21.8379 67.5684 21.8379ZM97.2334 22.1992V42H94.7764L94.3428 39.2178H94.1802C93.7707 39.9043 93.2407 40.4824 92.5903 40.9521C91.9399 41.4219 91.2052 41.7712 90.3862 42C89.5793 42.2409 88.7181 42.3613 87.8027 42.3613C86.237 42.3613 84.9242 42.1084 83.8643 41.6025C82.8044 41.0967 82.0034 40.3138 81.4614 39.2539C80.9315 38.194 80.6665 36.833 80.6665 35.1709V22.1992H83.7017V34.9541C83.7017 36.6042 84.075 37.8387 84.8218 38.6577C85.5685 39.4647 86.7067 39.8682 88.2363 39.8682C89.7057 39.8682 90.874 39.5911 91.7412 39.0371C92.6204 38.4831 93.2528 37.6701 93.6382 36.5981C94.0236 35.5142 94.2163 34.1893 94.2163 32.6235V22.1992H97.2334Z" fill="black"/>
<rect x="1" width="99" height="10" fill="#0029FF"/>
<rect x="1" y="54" width="99" height="10" fill="#0029FF"/>
</svg>
