<svg width="99" height="65" viewBox="0 0 99 65" fill="none" xmlns="http://www.w3.org/2000/svg">
<g id="Burger">
<g id="menu">
<path id="menu_2" d="M23.9941 22.3828C26.1152 22.3828 27.7148 22.9395 28.793 24.0527C29.8711 25.1543 30.4102 26.9297 30.4102 29.3789V42H27.5273V29.5195C27.5273 27.9609 27.1875 26.7949 26.5078 26.0215C25.8398 25.2363 24.8438 24.8438 23.5195 24.8438C21.6562 24.8438 20.3027 25.3828 19.459 26.4609C18.6152 27.5391 18.1934 29.127 18.1934 31.2246V42H15.293V29.5195C15.293 28.4766 15.1406 27.6094 14.8359 26.918C14.543 26.2266 14.0977 25.7109 13.5 25.3711C12.9141 25.0195 12.1699 24.8438 11.2676 24.8438C9.99023 24.8438 8.96484 25.1074 8.19141 25.6348C7.41797 26.1621 6.85547 26.9473 6.50391 27.9902C6.16406 29.0215 5.99414 30.293 5.99414 31.8047V42H3.07617V22.7344H5.43164L5.87109 25.459H6.0293C6.41602 24.791 6.90234 24.2285 7.48828 23.7715C8.07422 23.3145 8.73047 22.9688 9.45703 22.7344C10.1836 22.5 10.957 22.3828 11.7773 22.3828C13.2422 22.3828 14.4668 22.6582 15.4512 23.209C16.4473 23.748 17.168 24.5742 17.6133 25.6875H17.7715C18.4043 24.5742 19.2715 23.748 20.373 23.209C21.4746 22.6582 22.6816 22.3828 23.9941 22.3828ZM43.8223 22.3828C45.4629 22.3828 46.8691 22.7461 48.041 23.4727C49.2129 24.1992 50.1094 25.2188 50.7305 26.5312C51.3516 27.832 51.6621 29.3555 51.6621 31.1016V32.9121H38.3555C38.3906 35.1738 38.9531 36.8965 40.043 38.0801C41.1328 39.2637 42.668 39.8555 44.6484 39.8555C45.8672 39.8555 46.9453 39.7441 47.8828 39.5215C48.8203 39.2988 49.793 38.9707 50.8008 38.5371V41.1035C49.8281 41.5371 48.8613 41.8535 47.9004 42.0527C46.9512 42.252 45.8262 42.3516 44.5254 42.3516C42.6738 42.3516 41.0566 41.9766 39.6738 41.2266C38.3027 40.4648 37.2363 39.3516 36.4746 37.8867C35.7129 36.4219 35.332 34.6289 35.332 32.5078C35.332 30.4336 35.6777 28.6406 36.3691 27.1289C37.0723 25.6055 38.0566 24.4336 39.3223 23.6133C40.5996 22.793 42.0996 22.3828 43.8223 22.3828ZM43.7871 24.7734C42.2285 24.7734 40.9863 25.2832 40.0605 26.3027C39.1348 27.3223 38.584 28.7461 38.4082 30.5742H48.6035C48.5918 29.4258 48.4102 28.418 48.0586 27.5508C47.7188 26.6719 47.1973 25.9922 46.4941 25.5117C45.791 25.0195 44.8887 24.7734 43.7871 24.7734ZM65.7422 22.3828C68.0273 22.3828 69.7559 22.9453 70.9277 24.0703C72.0996 25.1836 72.6855 26.9766 72.6855 29.4492V42H69.8027V29.6426C69.8027 28.0371 69.4336 26.8359 68.6953 26.0391C67.9688 25.2422 66.8496 24.8438 65.3379 24.8438C63.2051 24.8438 61.7051 25.4473 60.8379 26.6543C59.9707 27.8613 59.5371 29.6133 59.5371 31.9102V42H56.6191V22.7344H58.9746L59.4141 25.5117H59.5723C59.9824 24.832 60.5039 24.2637 61.1367 23.8066C61.7695 23.3379 62.4785 22.9863 63.2637 22.752C64.0488 22.5059 64.875 22.3828 65.7422 22.3828ZM94.6055 22.7344V42H92.2148L91.793 39.293H91.6348C91.2363 39.9609 90.7207 40.5234 90.0879 40.9805C89.4551 41.4375 88.7402 41.7773 87.9434 42C87.1582 42.2344 86.3203 42.3516 85.4297 42.3516C83.9062 42.3516 82.6289 42.1055 81.5977 41.6133C80.5664 41.1211 79.7871 40.3594 79.2598 39.3281C78.7441 38.2969 78.4863 36.9727 78.4863 35.3555V22.7344H81.4395V35.1445C81.4395 36.75 81.8027 37.9512 82.5293 38.748C83.2559 39.5332 84.3633 39.9258 85.8516 39.9258C87.2812 39.9258 88.418 39.6562 89.2617 39.1172C90.1172 38.5781 90.7324 37.7871 91.1074 36.7441C91.4824 35.6895 91.6699 34.4004 91.6699 32.877V22.7344H94.6055Z" fill="black"/>
<rect id="menuline2" y="55" width="99" height="10" fill="black"/>
<rect id="menuline1" y="1" width="99" height="10" fill="black"/>
<rect id="Rectangle 166" width="99" height="65" fill="white"/>
</g>
<g id="X">
<path id="Vector 15" d="M23 60L76.5 5" stroke="black" stroke-width="8"/>
<path id="Vector 15_2" d="M76.5 60L23 5" stroke="black" stroke-width="8"/>
</g>
</g>
</svg>
