<svg width="468" height="311" viewBox="0 0 468 311" fill="none" xmlns="http://www.w3.org/2000/svg">
<g id="Hemani Kapoor Intro Logo">
<g id="HEMANI">
<path d="M0 151H13.327V78.3043H54.3828V151H67.7098V0H54.3828V66.2243H13.327V0H0V151Z" fill="black"/>
<path d="M89.4232 151H149.61V138.704H102.75V78.3043H141.227V66.2243H102.75V12.08H149.61V0H89.4232V151Z" fill="black"/>
<path d="M165.412 151H177.449V19.4143L204.318 151H215.926L242.58 19.4143V151H255.692V0H235.701L210.552 126.193L185.402 0H165.412V151Z" fill="black"/>
<path d="M334.893 151H348.435L318.557 0H300.501L271.052 151H283.734L289.968 117.564H328.444L334.893 151ZM292.332 105.7L309.099 16.3943L326.295 105.7H292.332Z" fill="black"/>
<path d="M363.78 151H376.033V22.2186L418.808 151H432.995V0H420.528V116.701L381.406 0H363.78V151Z" fill="black"/>
<path d="M454.673 151H468V0H454.673V151Z" fill="black"/>
</g>
<g id="KAPOOR">
<path d="M49.4 309H72.4L45.8 220.4L72 169H49.6L22 229.2V169H0V309H22V265L31 247.4L49.4 309Z" fill="black"/>
<path d="M130.213 309H152.213L129.413 169H99.6125L76.8125 309H97.2125L101.013 281.6H126.413L130.213 309ZM103.813 262.6L113.613 192L123.613 262.6H103.813Z" fill="black"/>
<path d="M162.695 309H184.695V252H195.095C217.095 252 227.895 239.8 227.895 217.4V203.6C227.895 181.2 217.095 169 195.095 169H162.695V309ZM184.695 232V189H195.095C202.095 189 205.895 192.2 205.895 202.2V218.8C205.895 228.8 202.095 232 195.095 232H184.695Z" fill="black"/>
<path d="M271.448 311C293.048 311 304.848 298.2 304.848 275.8V202.2C304.848 179.8 293.048 167 271.448 167C249.848 167 238.048 179.8 238.048 202.2V275.8C238.048 298.2 249.848 311 271.448 311ZM271.448 291C264.448 291 260.048 287.2 260.048 277.2V200.8C260.048 190.8 264.448 187 271.448 187C278.448 187 282.848 190.8 282.848 200.8V277.2C282.848 287.2 278.448 291 271.448 291Z" fill="black"/>
<path d="M351.527 311C373.127 311 384.927 298.2 384.927 275.8V202.2C384.927 179.8 373.127 167 351.527 167C329.927 167 318.127 179.8 318.127 202.2V275.8C318.127 298.2 329.927 311 351.527 311ZM351.527 291C344.527 291 340.127 287.2 340.127 277.2V200.8C340.127 190.8 344.527 187 351.527 187C358.527 187 362.927 190.8 362.927 200.8V277.2C362.927 287.2 358.527 291 351.527 291Z" fill="black"/>
<path d="M399.805 309H421.805V249H429.405C439.405 249 443.205 253.2 443.205 266.2V291.8C443.205 303.2 444.005 305.4 445.205 309H467.605C465.405 303.8 465.205 298.8 465.205 292V267.4C465.205 251.6 461.605 241.2 450.605 237.8V237.4C460.405 233.4 465.005 224.2 465.005 209.8V201.2C465.005 179.6 455.205 169 432.405 169H399.805V309ZM421.805 229V189H431.805C439.605 189 443.005 193.4 443.005 203.4V214.2C443.005 225.4 438.005 229 429.805 229H421.805Z" fill="black"/>
</g>
</g>
</svg>
