<svg width="79" height="50" viewBox="0 0 79 50" fill="none" xmlns="http://www.w3.org/2000/svg">
<path id="Arrow" d="M51.5417 41.5955C49.6615 43.6179 49.7767 46.7817 51.7991 48.6619C53.8216 50.5421 56.9853 50.4269 58.8655 48.4044L76.1934 29.7662C78.6912 27.0796 78.6912 22.9204 76.1934 20.2337L58.8655 1.59551C56.9853 -0.426905 53.8216 -0.54217 51.7991 1.33806C49.7767 3.2183 49.6615 6.38202 51.5417 8.40444L62.322 20L5 20C2.23858 20 -1.09279e-06 22.2386 -1.09279e-06 25C-1.09279e-06 27.7614 2.23857 30 5 30L62.322 30L51.5417 41.5955Z" fill="#FF0000"/>
</svg>
