<svg width="487" height="577" viewBox="0 0 487 577" fill="none" xmlns="http://www.w3.org/2000/svg">
<path d="M10.71 210H23.73V139.23H63.84V210H76.86V63H63.84V127.47H23.73V63H10.71V210ZM98.0733 210H156.873V198.03H111.093V139.23H148.683V127.47H111.093V74.76H156.873V63H98.0733V210ZM172.312 210H184.072V81.9L210.322 210H221.662L247.702 81.9V210H260.512V63H240.982L216.412 185.85L191.842 63H172.312V210ZM337.888 210H351.118L321.928 63H304.288L275.518 210H287.908L293.998 177.45H331.588L337.888 210ZM296.308 165.9L312.688 78.96L329.488 165.9H296.308ZM366.11 210H378.08V84.63L419.87 210H433.73V63H421.55V176.61L383.33 63H366.11V210ZM454.909 210H467.929V63H454.909V210Z" fill="black"/>
<path d="M57.6 371H80.6L54 282.4L80.2 231H57.8L30.2 291.2V231H8.2V371H30.2V327L39.2 309.4L57.6 371ZM138.413 371H160.413L137.613 231H107.812L85.0125 371H105.413L109.212 343.6H134.613L138.413 371ZM112.013 324.6L121.813 254L131.813 324.6H112.013ZM170.895 371H192.895V314H203.295C225.295 314 236.095 301.8 236.095 279.4V265.6C236.095 243.2 225.295 231 203.295 231H170.895V371ZM192.895 294V251H203.295C210.295 251 214.095 254.2 214.095 264.2V280.8C214.095 290.8 210.295 294 203.295 294H192.895ZM279.648 373C301.248 373 313.048 360.2 313.048 337.8V264.2C313.048 241.8 301.248 229 279.648 229C258.048 229 246.248 241.8 246.248 264.2V337.8C246.248 360.2 258.048 373 279.648 373ZM279.648 353C272.648 353 268.248 349.2 268.248 339.2V262.8C268.248 252.8 272.648 249 279.648 249C286.648 249 291.048 252.8 291.048 262.8V339.2C291.048 349.2 286.648 353 279.648 353ZM359.727 373C381.327 373 393.127 360.2 393.127 337.8V264.2C393.127 241.8 381.327 229 359.727 229C338.127 229 326.327 241.8 326.327 264.2V337.8C326.327 360.2 338.127 373 359.727 373ZM359.727 353C352.727 353 348.327 349.2 348.327 339.2V262.8C348.327 252.8 352.727 249 359.727 249C366.727 249 371.127 252.8 371.127 262.8V339.2C371.127 349.2 366.727 353 359.727 353ZM408.005 371H430.005V311H437.605C447.605 311 451.405 315.2 451.405 328.2V353.8C451.405 365.2 452.205 367.4 453.405 371H475.805C473.605 365.8 473.405 360.8 473.405 354V329.4C473.405 313.6 469.805 303.2 458.805 299.8V299.4C468.605 295.4 473.205 286.2 473.205 271.8V263.2C473.205 241.6 463.405 231 440.605 231H408.005V371ZM430.005 291V251H440.005C447.805 251 451.205 255.4 451.205 265.4V276.2C451.205 287.4 446.205 291 438.005 291H430.005Z" fill="black"/>
<path d="M2.18 411.2H3.32V417.28H3.4C3.6 416.8 3.93333 416.373 4.4 416C4.88 415.627 5.55333 415.44 6.42 415.44C7.54 415.44 8.40667 415.78 9.02 416.46C9.64667 417.127 9.96 418.087 9.96 419.34V426H8.82V419.54C8.82 418.473 8.58667 417.693 8.12 417.2C7.66667 416.707 7 416.46 6.12 416.46C5.76 416.46 5.41333 416.507 5.08 416.6C4.74667 416.693 4.44667 416.833 4.18 417.02C3.92667 417.207 3.72 417.447 3.56 417.74C3.4 418.02 3.32 418.353 3.32 418.74V426H2.18V411.2ZM18.6322 412.92C18.2722 412.92 18.0122 412.847 17.8522 412.7C17.7055 412.54 17.6322 412.347 17.6322 412.12V411.86C17.6322 411.633 17.7055 411.447 17.8522 411.3C18.0122 411.14 18.2722 411.06 18.6322 411.06C18.9922 411.06 19.2455 411.14 19.3922 411.3C19.5522 411.447 19.6322 411.633 19.6322 411.86V412.12C19.6322 412.347 19.5522 412.54 19.3922 412.7C19.2455 412.847 18.9922 412.92 18.6322 412.92ZM14.1922 425.02H18.0722V416.66H14.1922V415.68H19.2122V425.02H22.8322V426H14.1922V425.02ZM29.3244 423.74H31.2444L29.2244 429.06H28.2644L29.3244 423.74ZM54.6088 412.92C54.2488 412.92 53.9888 412.847 53.8288 412.7C53.6821 412.54 53.6088 412.347 53.6088 412.12V411.86C53.6088 411.633 53.6821 411.447 53.8288 411.3C53.9888 411.14 54.2488 411.06 54.6088 411.06C54.9688 411.06 55.2221 411.14 55.3688 411.3C55.5288 411.447 55.6088 411.633 55.6088 411.86V412.12C55.6088 412.347 55.5288 412.54 55.3688 412.7C55.2221 412.847 54.9688 412.92 54.6088 412.92ZM50.1688 425.02H54.0488V416.66H50.1688V415.68H55.1888V425.02H58.8088V426H50.1688V425.02ZM65.7809 411.2H67.7009L65.6809 416.52H64.7209L65.7809 411.2ZM73.1931 426V415.68H74.2531V416.88H74.3131C74.4731 416.48 74.7065 416.14 75.0131 415.86C75.3331 415.58 75.7798 415.44 76.3531 415.44C76.9398 415.44 77.3931 415.587 77.7131 415.88C78.0331 416.16 78.2331 416.553 78.3131 417.06H78.3531C78.5398 416.593 78.8065 416.207 79.1531 415.9C79.4998 415.593 79.9798 415.44 80.5931 415.44C81.3931 415.44 81.9465 415.707 82.2531 416.24C82.5731 416.76 82.7331 417.52 82.7331 418.52V426H81.6731V418.7C81.6731 417.86 81.5531 417.267 81.3131 416.92C81.0865 416.573 80.7198 416.4 80.2131 416.4C79.7331 416.4 79.3265 416.567 78.9931 416.9C78.6598 417.22 78.4931 417.713 78.4931 418.38V426H77.4331V418.7C77.4331 417.86 77.3131 417.267 77.0731 416.92C76.8465 416.573 76.4798 416.4 75.9731 416.4C75.4931 416.4 75.0865 416.567 74.7531 416.9C74.4198 417.22 74.2531 417.713 74.2531 418.38V426H73.1931ZM104.998 419.44H98.8775V426H97.6775V412.04H98.8775V418.4H104.998V412.04H106.198V426H104.998V419.44ZM114.09 426.24C112.65 426.24 111.516 425.773 110.69 424.84C109.876 423.893 109.47 422.567 109.47 420.86C109.47 420.007 109.576 419.247 109.79 418.58C110.003 417.9 110.303 417.333 110.69 416.88C111.09 416.413 111.57 416.06 112.13 415.82C112.69 415.567 113.31 415.44 113.99 415.44C114.683 415.44 115.303 415.567 115.85 415.82C116.396 416.06 116.856 416.407 117.23 416.86C117.616 417.313 117.91 417.853 118.11 418.48C118.31 419.107 118.41 419.8 118.41 420.56V421.06H110.67V421.56C110.67 422.667 110.97 423.56 111.57 424.24C112.17 424.907 113.01 425.24 114.09 425.24C114.85 425.24 115.496 425.067 116.03 424.72C116.576 424.373 116.996 423.86 117.29 423.18L118.15 423.72C117.843 424.48 117.343 425.093 116.65 425.56C115.956 426.013 115.103 426.24 114.09 426.24ZM113.99 416.4C113.483 416.4 113.023 416.493 112.61 416.68C112.21 416.853 111.863 417.1 111.57 417.42C111.29 417.74 111.07 418.127 110.91 418.58C110.75 419.033 110.67 419.533 110.67 420.08V420.2H117.19V420.04C117.19 418.92 116.903 418.033 116.33 417.38C115.77 416.727 114.99 416.4 113.99 416.4ZM121.162 426V415.68H122.222V416.88H122.282C122.442 416.48 122.675 416.14 122.982 415.86C123.302 415.58 123.749 415.44 124.322 415.44C124.909 415.44 125.362 415.587 125.682 415.88C126.002 416.16 126.202 416.553 126.282 417.06H126.322C126.509 416.593 126.775 416.207 127.122 415.9C127.469 415.593 127.949 415.44 128.562 415.44C129.362 415.44 129.915 415.707 130.222 416.24C130.542 416.76 130.702 417.52 130.702 418.52V426H129.642V418.7C129.642 417.86 129.522 417.267 129.282 416.92C129.055 416.573 128.689 416.4 128.182 416.4C127.702 416.4 127.295 416.567 126.962 416.9C126.629 417.22 126.462 417.713 126.462 418.38V426H125.402V418.7C125.402 417.86 125.282 417.267 125.042 416.92C124.815 416.573 124.449 416.4 123.942 416.4C123.462 416.4 123.055 416.567 122.722 416.9C122.389 417.22 122.222 417.713 122.222 418.38V426H121.162ZM141.494 426C141.027 426 140.694 425.887 140.494 425.66C140.294 425.433 140.181 425.127 140.154 424.74V424.38H140.054C139.827 424.927 139.454 425.373 138.934 425.72C138.414 426.067 137.707 426.24 136.814 426.24C135.734 426.24 134.881 425.98 134.254 425.46C133.641 424.927 133.334 424.18 133.334 423.22C133.334 422.767 133.407 422.36 133.554 422C133.714 421.627 133.961 421.313 134.294 421.06C134.641 420.807 135.081 420.613 135.614 420.48C136.147 420.333 136.801 420.26 137.574 420.26H140.094V419C140.094 418.133 139.854 417.487 139.374 417.06C138.907 416.633 138.254 416.42 137.414 416.42C136.001 416.42 135.014 416.987 134.454 418.12L133.674 417.56C133.941 416.96 134.387 416.46 135.014 416.06C135.654 415.647 136.474 415.44 137.474 415.44C138.647 415.44 139.567 415.747 140.234 416.36C140.901 416.96 141.234 417.8 141.234 418.88V425H142.774V426H141.494ZM136.994 425.28C137.434 425.28 137.841 425.227 138.214 425.12C138.587 425.013 138.914 424.867 139.194 424.68C139.474 424.48 139.694 424.24 139.854 423.96C140.014 423.68 140.094 423.367 140.094 423.02V421.12H137.574C136.494 421.12 135.714 421.287 135.234 421.62C134.767 421.94 134.534 422.38 134.534 422.94V423.46C134.534 424.06 134.754 424.513 135.194 424.82C135.647 425.127 136.247 425.28 136.994 425.28ZM146.086 426V415.68H147.226V417.28H147.306C147.506 416.8 147.84 416.373 148.306 416C148.786 415.627 149.46 415.44 150.326 415.44C151.446 415.44 152.313 415.78 152.926 416.46C153.553 417.127 153.866 418.087 153.866 419.34V426H152.726V419.54C152.726 418.473 152.493 417.693 152.026 417.2C151.573 416.707 150.906 416.46 150.026 416.46C149.666 416.46 149.32 416.507 148.986 416.6C148.653 416.693 148.353 416.833 148.086 417.02C147.833 417.207 147.626 417.447 147.466 417.74C147.306 418.02 147.226 418.353 147.226 418.74V426H146.086ZM162.538 412.92C162.178 412.92 161.918 412.847 161.758 412.7C161.612 412.54 161.538 412.347 161.538 412.12V411.86C161.538 411.633 161.612 411.447 161.758 411.3C161.918 411.14 162.178 411.06 162.538 411.06C162.898 411.06 163.152 411.14 163.298 411.3C163.458 411.447 163.538 411.633 163.538 411.86V412.12C163.538 412.347 163.458 412.54 163.298 412.7C163.152 412.847 162.898 412.92 162.538 412.92ZM158.098 425.02H161.978V416.66H158.098V415.68H163.118V425.02H166.738V426H158.098V425.02ZM173.891 426.14C173.464 426.14 173.164 426.053 172.991 425.88C172.817 425.707 172.731 425.48 172.731 425.2V424.92C172.731 424.653 172.817 424.433 172.991 424.26C173.164 424.073 173.464 423.98 173.891 423.98C174.317 423.98 174.617 424.073 174.791 424.26C174.964 424.433 175.051 424.653 175.051 424.92V425.2C175.051 425.48 174.964 425.707 174.791 425.88C174.617 426.053 174.317 426.14 173.891 426.14ZM193.615 426V425.04H197.275V413H193.615V412.04H202.135V413H198.475V425.04H202.135V426H193.615ZM209.687 411.2H211.607L209.587 416.52H208.627L209.687 411.2ZM217.099 426V415.68H218.159V416.88H218.219C218.379 416.48 218.613 416.14 218.919 415.86C219.239 415.58 219.686 415.44 220.259 415.44C220.846 415.44 221.299 415.587 221.619 415.88C221.939 416.16 222.139 416.553 222.219 417.06H222.259C222.446 416.593 222.713 416.207 223.059 415.9C223.406 415.593 223.886 415.44 224.499 415.44C225.299 415.44 225.853 415.707 226.159 416.24C226.479 416.76 226.639 417.52 226.639 418.52V426H225.579V418.7C225.579 417.86 225.459 417.267 225.219 416.92C224.993 416.573 224.626 416.4 224.119 416.4C223.639 416.4 223.233 416.567 222.899 416.9C222.566 417.22 222.399 417.713 222.399 418.38V426H221.339V418.7C221.339 417.86 221.219 417.267 220.979 416.92C220.753 416.573 220.386 416.4 219.879 416.4C219.399 416.4 218.993 416.567 218.659 416.9C218.326 417.22 218.159 417.713 218.159 418.38V426H217.099ZM249.424 426C248.957 426 248.624 425.887 248.424 425.66C248.224 425.433 248.11 425.127 248.084 424.74V424.38H247.984C247.757 424.927 247.384 425.373 246.864 425.72C246.344 426.067 245.637 426.24 244.744 426.24C243.664 426.24 242.81 425.98 242.184 425.46C241.57 424.927 241.264 424.18 241.264 423.22C241.264 422.767 241.337 422.36 241.484 422C241.644 421.627 241.89 421.313 242.224 421.06C242.57 420.807 243.01 420.613 243.544 420.48C244.077 420.333 244.73 420.26 245.504 420.26H248.024V419C248.024 418.133 247.784 417.487 247.304 417.06C246.837 416.633 246.184 416.42 245.344 416.42C243.93 416.42 242.944 416.987 242.384 418.12L241.604 417.56C241.87 416.96 242.317 416.46 242.944 416.06C243.584 415.647 244.404 415.44 245.404 415.44C246.577 415.44 247.497 415.747 248.164 416.36C248.83 416.96 249.164 417.8 249.164 418.88V425H250.704V426H249.424ZM244.924 425.28C245.364 425.28 245.77 425.227 246.144 425.12C246.517 425.013 246.844 424.867 247.124 424.68C247.404 424.48 247.624 424.24 247.784 423.96C247.944 423.68 248.024 423.367 248.024 423.02V421.12H245.504C244.424 421.12 243.644 421.287 243.164 421.62C242.697 421.94 242.464 422.38 242.464 422.94V423.46C242.464 424.06 242.684 424.513 243.124 424.82C243.577 425.127 244.177 425.28 244.924 425.28ZM274.908 427.22C274.908 428.26 274.481 429.02 273.628 429.5C272.775 429.993 271.521 430.24 269.868 430.24C268.268 430.24 267.115 430.013 266.408 429.56C265.701 429.107 265.348 428.473 265.348 427.66C265.348 427.073 265.508 426.607 265.828 426.26C266.148 425.927 266.595 425.673 267.168 425.5V425.34C266.515 425.087 266.188 424.62 266.188 423.94C266.188 423.433 266.361 423.047 266.708 422.78C267.055 422.5 267.481 422.293 267.988 422.16V422.08C267.375 421.813 266.895 421.413 266.548 420.88C266.215 420.347 266.048 419.707 266.048 418.96C266.048 418.44 266.135 417.967 266.308 417.54C266.495 417.1 266.748 416.727 267.068 416.42C267.401 416.1 267.801 415.86 268.268 415.7C268.735 415.527 269.255 415.44 269.828 415.44C270.655 415.44 271.361 415.613 271.948 415.96V415.54C271.948 415.22 272.021 414.967 272.168 414.78C272.328 414.58 272.581 414.48 272.928 414.48H274.948V415.48H272.588V416.42C272.921 416.727 273.175 417.093 273.348 417.52C273.535 417.947 273.628 418.427 273.628 418.96C273.628 419.48 273.535 419.953 273.348 420.38C273.175 420.807 272.921 421.18 272.588 421.5C272.255 421.807 271.855 422.047 271.388 422.22C270.921 422.38 270.401 422.46 269.828 422.46C269.641 422.46 269.468 422.453 269.308 422.44C269.148 422.427 268.975 422.4 268.788 422.36C268.361 422.467 267.988 422.627 267.668 422.84C267.348 423.053 267.188 423.34 267.188 423.7C267.188 424.3 267.748 424.6 268.868 424.6H271.328C272.581 424.6 273.488 424.84 274.048 425.32C274.621 425.787 274.908 426.42 274.908 427.22ZM273.828 427.26C273.828 426.767 273.641 426.373 273.268 426.08C272.908 425.8 272.261 425.66 271.328 425.66H267.948C267.481 425.807 267.115 426.02 266.848 426.3C266.595 426.593 266.468 426.973 266.468 427.44C266.468 427.987 266.688 428.433 267.128 428.78C267.581 429.14 268.261 429.32 269.168 429.32H270.508C271.535 429.32 272.341 429.147 272.928 428.8C273.528 428.467 273.828 427.953 273.828 427.26ZM269.828 421.56C270.695 421.56 271.341 421.347 271.768 420.92C272.208 420.493 272.428 419.947 272.428 419.28V418.62C272.428 417.94 272.208 417.393 271.768 416.98C271.341 416.553 270.695 416.34 269.828 416.34C268.975 416.34 268.328 416.553 267.888 416.98C267.461 417.393 267.248 417.94 267.248 418.62V419.28C267.248 419.947 267.468 420.493 267.908 420.92C268.348 421.347 268.988 421.56 269.828 421.56ZM277.38 425.02H280.62V416.66H277.38V415.68H281.76V418.04H281.84C282.067 417.32 282.454 416.747 283 416.32C283.56 415.893 284.294 415.68 285.2 415.68H286.98V416.8H284.86C283.927 416.8 283.174 417.08 282.6 417.64C282.04 418.187 281.76 418.927 281.76 419.86V425.02H285.96V426H277.38V425.02ZM297.393 426C296.926 426 296.593 425.887 296.393 425.66C296.193 425.433 296.079 425.127 296.053 424.74V424.38H295.953C295.726 424.927 295.353 425.373 294.833 425.72C294.313 426.067 293.606 426.24 292.713 426.24C291.633 426.24 290.779 425.98 290.153 425.46C289.539 424.927 289.233 424.18 289.233 423.22C289.233 422.767 289.306 422.36 289.453 422C289.613 421.627 289.859 421.313 290.193 421.06C290.539 420.807 290.979 420.613 291.513 420.48C292.046 420.333 292.699 420.26 293.473 420.26H295.993V419C295.993 418.133 295.753 417.487 295.273 417.06C294.806 416.633 294.153 416.42 293.313 416.42C291.899 416.42 290.913 416.987 290.353 418.12L289.573 417.56C289.839 416.96 290.286 416.46 290.913 416.06C291.553 415.647 292.373 415.44 293.373 415.44C294.546 415.44 295.466 415.747 296.133 416.36C296.799 416.96 297.133 417.8 297.133 418.88V425H298.673V426H297.393ZM292.893 425.28C293.333 425.28 293.739 425.227 294.113 425.12C294.486 425.013 294.813 424.867 295.093 424.68C295.373 424.48 295.593 424.24 295.753 423.96C295.913 423.68 295.993 423.367 295.993 423.02V421.12H293.473C292.393 421.12 291.613 421.287 291.133 421.62C290.666 421.94 290.433 422.38 290.433 422.94V423.46C290.433 424.06 290.653 424.513 291.093 424.82C291.546 425.127 292.146 425.28 292.893 425.28ZM301.945 415.68H303.085V417.32H303.145C303.438 416.76 303.845 416.307 304.365 415.96C304.898 415.613 305.558 415.44 306.345 415.44C307.638 415.44 308.645 415.907 309.365 416.84C310.085 417.76 310.445 419.093 310.445 420.84C310.445 422.587 310.085 423.927 309.365 424.86C308.645 425.78 307.638 426.24 306.345 426.24C305.558 426.24 304.898 426.067 304.365 425.72C303.845 425.373 303.438 424.92 303.145 424.36H303.085V430H301.945V415.68ZM305.965 425.22C307.005 425.22 307.805 424.893 308.365 424.24C308.938 423.587 309.225 422.693 309.225 421.56V420.12C309.225 418.987 308.938 418.093 308.365 417.44C307.805 416.787 307.005 416.46 305.965 416.46C305.578 416.46 305.211 416.513 304.865 416.62C304.518 416.727 304.211 416.88 303.945 417.08C303.678 417.28 303.465 417.527 303.305 417.82C303.158 418.113 303.085 418.44 303.085 418.8V422.88C303.085 423.24 303.158 423.567 303.305 423.86C303.465 424.153 303.678 424.4 303.945 424.6C304.211 424.8 304.518 424.953 304.865 425.06C305.211 425.167 305.578 425.22 305.965 425.22ZM313.977 411.2H315.117V417.28H315.197C315.397 416.8 315.73 416.373 316.197 416C316.677 415.627 317.35 415.44 318.217 415.44C319.337 415.44 320.204 415.78 320.817 416.46C321.444 417.127 321.757 418.087 321.757 419.34V426H320.617V419.54C320.617 418.473 320.384 417.693 319.917 417.2C319.464 416.707 318.797 416.46 317.917 416.46C317.557 416.46 317.21 416.507 316.877 416.6C316.544 416.693 316.244 416.833 315.977 417.02C315.724 417.207 315.517 417.447 315.357 417.74C315.197 418.02 315.117 418.353 315.117 418.74V426H313.977V411.2ZM330.429 412.92C330.069 412.92 329.809 412.847 329.649 412.7C329.502 412.54 329.429 412.347 329.429 412.12V411.86C329.429 411.633 329.502 411.447 329.649 411.3C329.809 411.14 330.069 411.06 330.429 411.06C330.789 411.06 331.042 411.14 331.189 411.3C331.349 411.447 331.429 411.633 331.429 411.86V412.12C331.429 412.347 331.349 412.54 331.189 412.7C331.042 412.847 330.789 412.92 330.429 412.92ZM325.989 425.02H329.869V416.66H325.989V415.68H331.009V425.02H334.629V426H325.989V425.02ZM342.181 426.24C340.741 426.24 339.628 425.767 338.841 424.82C338.055 423.873 337.661 422.547 337.661 420.84C337.661 419.133 338.055 417.807 338.841 416.86C339.641 415.913 340.748 415.44 342.161 415.44C343.121 415.44 343.908 415.66 344.521 416.1C345.135 416.527 345.575 417.08 345.841 417.76L344.921 418.22C344.708 417.647 344.368 417.207 343.901 416.9C343.435 416.593 342.855 416.44 342.161 416.44C341.108 416.44 340.295 416.78 339.721 417.46C339.161 418.127 338.881 419.013 338.881 420.12V421.56C338.881 422.667 339.161 423.56 339.721 424.24C340.295 424.907 341.115 425.24 342.181 425.24C342.915 425.24 343.528 425.073 344.021 424.74C344.515 424.407 344.895 423.94 345.161 423.34L346.001 423.88C345.708 424.56 345.248 425.127 344.621 425.58C343.995 426.02 343.181 426.24 342.181 426.24ZM368.486 424.36H368.426C368.132 424.92 367.719 425.373 367.186 425.72C366.666 426.067 366.012 426.24 365.226 426.24C363.932 426.24 362.926 425.78 362.206 424.86C361.486 423.927 361.126 422.587 361.126 420.84C361.126 419.093 361.486 417.76 362.206 416.84C362.926 415.907 363.932 415.44 365.226 415.44C366.012 415.44 366.666 415.613 367.186 415.96C367.719 416.307 368.132 416.76 368.426 417.32H368.486V411.2H369.626V426H368.486V424.36ZM365.606 425.22C365.992 425.22 366.359 425.167 366.706 425.06C367.052 424.953 367.359 424.8 367.626 424.6C367.892 424.4 368.099 424.153 368.246 423.86C368.406 423.567 368.486 423.24 368.486 422.88V418.8C368.486 418.44 368.406 418.113 368.246 417.82C368.099 417.527 367.892 417.28 367.626 417.08C367.359 416.88 367.052 416.727 366.706 416.62C366.359 416.513 365.992 416.46 365.606 416.46C364.566 416.46 363.759 416.787 363.186 417.44C362.626 418.093 362.346 418.987 362.346 420.12V421.56C362.346 422.693 362.626 423.587 363.186 424.24C363.759 424.893 364.566 425.22 365.606 425.22ZM377.918 426.24C376.478 426.24 375.344 425.773 374.518 424.84C373.704 423.893 373.298 422.567 373.298 420.86C373.298 420.007 373.404 419.247 373.618 418.58C373.831 417.9 374.131 417.333 374.518 416.88C374.918 416.413 375.398 416.06 375.958 415.82C376.518 415.567 377.138 415.44 377.818 415.44C378.511 415.44 379.131 415.567 379.678 415.82C380.224 416.06 380.684 416.407 381.058 416.86C381.444 417.313 381.738 417.853 381.938 418.48C382.138 419.107 382.238 419.8 382.238 420.56V421.06H374.498V421.56C374.498 422.667 374.798 423.56 375.398 424.24C375.998 424.907 376.838 425.24 377.918 425.24C378.678 425.24 379.324 425.067 379.858 424.72C380.404 424.373 380.824 423.86 381.118 423.18L381.978 423.72C381.671 424.48 381.171 425.093 380.478 425.56C379.784 426.013 378.931 426.24 377.918 426.24ZM377.818 416.4C377.311 416.4 376.851 416.493 376.438 416.68C376.038 416.853 375.691 417.1 375.398 417.42C375.118 417.74 374.898 418.127 374.738 418.58C374.578 419.033 374.498 419.533 374.498 420.08V420.2H381.018V420.04C381.018 418.92 380.731 418.033 380.158 417.38C379.598 416.727 378.818 416.4 377.818 416.4ZM389.97 426.24C388.93 426.24 388.023 426.067 387.25 425.72C386.49 425.36 385.83 424.86 385.27 424.22L386.05 423.54C386.557 424.127 387.123 424.567 387.75 424.86C388.377 425.14 389.123 425.28 389.99 425.28C390.897 425.28 391.63 425.107 392.19 424.76C392.763 424.413 393.05 423.88 393.05 423.16C393.05 422.84 392.99 422.58 392.87 422.38C392.763 422.167 392.61 421.993 392.41 421.86C392.21 421.727 391.977 421.627 391.71 421.56C391.443 421.48 391.15 421.42 390.83 421.38L389.23 421.16C388.83 421.107 388.423 421.033 388.01 420.94C387.61 420.833 387.243 420.68 386.91 420.48C386.59 420.28 386.323 420.013 386.11 419.68C385.91 419.347 385.81 418.92 385.81 418.4C385.81 417.893 385.91 417.453 386.11 417.08C386.31 416.707 386.59 416.4 386.95 416.16C387.31 415.92 387.73 415.74 388.21 415.62C388.703 415.5 389.23 415.44 389.79 415.44C390.75 415.44 391.557 415.6 392.21 415.92C392.877 416.227 393.437 416.613 393.89 417.08L393.13 417.8C392.983 417.64 392.81 417.48 392.61 417.32C392.423 417.147 392.19 416.993 391.91 416.86C391.643 416.727 391.33 416.62 390.97 416.54C390.61 416.447 390.197 416.4 389.73 416.4C388.85 416.4 388.163 416.56 387.67 416.88C387.19 417.2 386.95 417.68 386.95 418.32C386.95 418.64 387.003 418.907 387.11 419.12C387.23 419.32 387.39 419.487 387.59 419.62C387.79 419.753 388.023 419.86 388.29 419.94C388.557 420.007 388.843 420.06 389.15 420.1L390.77 420.34C391.17 420.407 391.57 420.493 391.97 420.6C392.383 420.693 392.75 420.84 393.07 421.04C393.403 421.24 393.67 421.507 393.87 421.84C394.07 422.16 394.17 422.58 394.17 423.1C394.17 423.62 394.063 424.073 393.85 424.46C393.65 424.847 393.363 425.173 392.99 425.44C392.63 425.707 392.19 425.907 391.67 426.04C391.15 426.173 390.583 426.24 389.97 426.24ZM402.382 412.92C402.022 412.92 401.762 412.847 401.602 412.7C401.456 412.54 401.382 412.347 401.382 412.12V411.86C401.382 411.633 401.456 411.447 401.602 411.3C401.762 411.14 402.022 411.06 402.382 411.06C402.742 411.06 402.996 411.14 403.142 411.3C403.302 411.447 403.382 411.633 403.382 411.86V412.12C403.382 412.347 403.302 412.54 403.142 412.7C402.996 412.847 402.742 412.92 402.382 412.92ZM397.942 425.02H401.822V416.66H397.942V415.68H402.962V425.02H406.582V426H397.942V425.02ZM418.814 427.22C418.814 428.26 418.388 429.02 417.534 429.5C416.681 429.993 415.428 430.24 413.774 430.24C412.174 430.24 411.021 430.013 410.314 429.56C409.608 429.107 409.254 428.473 409.254 427.66C409.254 427.073 409.414 426.607 409.734 426.26C410.054 425.927 410.501 425.673 411.074 425.5V425.34C410.421 425.087 410.094 424.62 410.094 423.94C410.094 423.433 410.268 423.047 410.614 422.78C410.961 422.5 411.388 422.293 411.894 422.16V422.08C411.281 421.813 410.801 421.413 410.454 420.88C410.121 420.347 409.954 419.707 409.954 418.96C409.954 418.44 410.041 417.967 410.214 417.54C410.401 417.1 410.654 416.727 410.974 416.42C411.308 416.1 411.708 415.86 412.174 415.7C412.641 415.527 413.161 415.44 413.734 415.44C414.561 415.44 415.268 415.613 415.854 415.96V415.54C415.854 415.22 415.928 414.967 416.074 414.78C416.234 414.58 416.488 414.48 416.834 414.48H418.854V415.48H416.494V416.42C416.828 416.727 417.081 417.093 417.254 417.52C417.441 417.947 417.534 418.427 417.534 418.96C417.534 419.48 417.441 419.953 417.254 420.38C417.081 420.807 416.828 421.18 416.494 421.5C416.161 421.807 415.761 422.047 415.294 422.22C414.828 422.38 414.308 422.46 413.734 422.46C413.548 422.46 413.374 422.453 413.214 422.44C413.054 422.427 412.881 422.4 412.694 422.36C412.268 422.467 411.894 422.627 411.574 422.84C411.254 423.053 411.094 423.34 411.094 423.7C411.094 424.3 411.654 424.6 412.774 424.6H415.234C416.488 424.6 417.394 424.84 417.954 425.32C418.528 425.787 418.814 426.42 418.814 427.22ZM417.734 427.26C417.734 426.767 417.548 426.373 417.174 426.08C416.814 425.8 416.168 425.66 415.234 425.66H411.854C411.388 425.807 411.021 426.02 410.754 426.3C410.501 426.593 410.374 426.973 410.374 427.44C410.374 427.987 410.594 428.433 411.034 428.78C411.488 429.14 412.168 429.32 413.074 429.32H414.414C415.441 429.32 416.248 429.147 416.834 428.8C417.434 428.467 417.734 427.953 417.734 427.26ZM413.734 421.56C414.601 421.56 415.248 421.347 415.674 420.92C416.114 420.493 416.334 419.947 416.334 419.28V418.62C416.334 417.94 416.114 417.393 415.674 416.98C415.248 416.553 414.601 416.34 413.734 416.34C412.881 416.34 412.234 416.553 411.794 416.98C411.368 417.393 411.154 417.94 411.154 418.62V419.28C411.154 419.947 411.374 420.493 411.814 420.92C412.254 421.347 412.894 421.56 413.734 421.56ZM421.907 426V415.68H423.047V417.28H423.127C423.327 416.8 423.66 416.373 424.127 416C424.607 415.627 425.28 415.44 426.147 415.44C427.267 415.44 428.133 415.78 428.747 416.46C429.373 417.127 429.687 418.087 429.687 419.34V426H428.547V419.54C428.547 418.473 428.313 417.693 427.847 417.2C427.393 416.707 426.727 416.46 425.847 416.46C425.487 416.46 425.14 416.507 424.807 416.6C424.473 416.693 424.173 416.833 423.907 417.02C423.653 417.207 423.447 417.447 423.287 417.74C423.127 418.02 423.047 418.353 423.047 418.74V426H421.907ZM437.879 426.24C436.439 426.24 435.305 425.773 434.479 424.84C433.665 423.893 433.259 422.567 433.259 420.86C433.259 420.007 433.365 419.247 433.579 418.58C433.792 417.9 434.092 417.333 434.479 416.88C434.879 416.413 435.359 416.06 435.919 415.82C436.479 415.567 437.099 415.44 437.779 415.44C438.472 415.44 439.092 415.567 439.639 415.82C440.185 416.06 440.645 416.407 441.019 416.86C441.405 417.313 441.699 417.853 441.899 418.48C442.099 419.107 442.199 419.8 442.199 420.56V421.06H434.459V421.56C434.459 422.667 434.759 423.56 435.359 424.24C435.959 424.907 436.799 425.24 437.879 425.24C438.639 425.24 439.285 425.067 439.819 424.72C440.365 424.373 440.785 423.86 441.079 423.18L441.939 423.72C441.632 424.48 441.132 425.093 440.439 425.56C439.745 426.013 438.892 426.24 437.879 426.24ZM437.779 416.4C437.272 416.4 436.812 416.493 436.399 416.68C435.999 416.853 435.652 417.1 435.359 417.42C435.079 417.74 434.859 418.127 434.699 418.58C434.539 419.033 434.459 419.533 434.459 420.08V420.2H440.979V420.04C440.979 418.92 440.692 418.033 440.119 417.38C439.559 416.727 438.779 416.4 437.779 416.4ZM445.271 425.02H448.511V416.66H445.271V415.68H449.651V418.04H449.731C449.958 417.32 450.344 416.747 450.891 416.32C451.451 415.893 452.184 415.68 453.091 415.68H454.871V416.8H452.751C451.818 416.8 451.064 417.08 450.491 417.64C449.931 418.187 449.651 418.927 449.651 419.86V425.02H453.851V426H445.271V425.02ZM2.14 437.2H3.28V443.32H3.34C3.63333 442.76 4.04 442.307 4.56 441.96C5.09333 441.613 5.75333 441.44 6.54 441.44C7.83333 441.44 8.84 441.907 9.56 442.84C10.28 443.76 10.64 445.093 10.64 446.84C10.64 448.587 10.28 449.927 9.56 450.86C8.84 451.78 7.83333 452.24 6.54 452.24C5.75333 452.24 5.09333 452.067 4.56 451.72C4.04 451.373 3.63333 450.92 3.34 450.36H3.28V452H2.14V437.2ZM6.16 451.22C7.2 451.22 8 450.893 8.56 450.24C9.13333 449.587 9.42 448.693 9.42 447.56V446.12C9.42 444.987 9.13333 444.093 8.56 443.44C8 442.787 7.2 442.46 6.16 442.46C5.77333 442.46 5.40667 442.513 5.06 442.62C4.71333 442.727 4.40667 442.88 4.14 443.08C3.87333 443.28 3.66 443.527 3.5 443.82C3.35333 444.113 3.28 444.44 3.28 444.8V448.88C3.28 449.24 3.35333 449.567 3.5 449.86C3.66 450.153 3.87333 450.4 4.14 450.6C4.40667 450.8 4.71333 450.953 5.06 451.06C5.40667 451.167 5.77333 451.22 6.16 451.22ZM21.5722 452C21.1055 452 20.7722 451.887 20.5722 451.66C20.3722 451.433 20.2589 451.127 20.2322 450.74V450.38H20.1322C19.9055 450.927 19.5322 451.373 19.0122 451.72C18.4922 452.067 17.7855 452.24 16.8922 452.24C15.8122 452.24 14.9589 451.98 14.3322 451.46C13.7189 450.927 13.4122 450.18 13.4122 449.22C13.4122 448.767 13.4855 448.36 13.6322 448C13.7922 447.627 14.0389 447.313 14.3722 447.06C14.7189 446.807 15.1589 446.613 15.6922 446.48C16.2255 446.333 16.8789 446.26 17.6522 446.26H20.1722V445C20.1722 444.133 19.9322 443.487 19.4522 443.06C18.9855 442.633 18.3322 442.42 17.4922 442.42C16.0789 442.42 15.0922 442.987 14.5322 444.12L13.7522 443.56C14.0189 442.96 14.4655 442.46 15.0922 442.06C15.7322 441.647 16.5522 441.44 17.5522 441.44C18.7255 441.44 19.6455 441.747 20.3122 442.36C20.9789 442.96 21.3122 443.8 21.3122 444.88V451H22.8522V452H21.5722ZM17.0722 451.28C17.5122 451.28 17.9189 451.227 18.2922 451.12C18.6655 451.013 18.9922 450.867 19.2722 450.68C19.5522 450.48 19.7722 450.24 19.9322 449.96C20.0922 449.68 20.1722 449.367 20.1722 449.02V447.12H17.6522C16.5722 447.12 15.7922 447.287 15.3122 447.62C14.8455 447.94 14.6122 448.38 14.6122 448.94V449.46C14.6122 450.06 14.8322 450.513 15.2722 450.82C15.7255 451.127 16.3255 451.28 17.0722 451.28ZM30.2044 452.24C29.1644 452.24 28.2577 452.067 27.4844 451.72C26.7244 451.36 26.0644 450.86 25.5044 450.22L26.2844 449.54C26.791 450.127 27.3577 450.567 27.9844 450.86C28.611 451.14 29.3577 451.28 30.2244 451.28C31.131 451.28 31.8644 451.107 32.4244 450.76C32.9977 450.413 33.2844 449.88 33.2844 449.16C33.2844 448.84 33.2244 448.58 33.1044 448.38C32.9977 448.167 32.8444 447.993 32.6444 447.86C32.4444 447.727 32.211 447.627 31.9444 447.56C31.6777 447.48 31.3844 447.42 31.0644 447.38L29.4644 447.16C29.0644 447.107 28.6577 447.033 28.2444 446.94C27.8444 446.833 27.4777 446.68 27.1444 446.48C26.8244 446.28 26.5577 446.013 26.3444 445.68C26.1444 445.347 26.0444 444.92 26.0444 444.4C26.0444 443.893 26.1444 443.453 26.3444 443.08C26.5444 442.707 26.8244 442.4 27.1844 442.16C27.5444 441.92 27.9644 441.74 28.4444 441.62C28.9377 441.5 29.4644 441.44 30.0244 441.44C30.9844 441.44 31.791 441.6 32.4444 441.92C33.111 442.227 33.671 442.613 34.1244 443.08L33.3644 443.8C33.2177 443.64 33.0444 443.48 32.8444 443.32C32.6577 443.147 32.4244 442.993 32.1444 442.86C31.8777 442.727 31.5644 442.62 31.2044 442.54C30.8444 442.447 30.431 442.4 29.9644 442.4C29.0844 442.4 28.3977 442.56 27.9044 442.88C27.4244 443.2 27.1844 443.68 27.1844 444.32C27.1844 444.64 27.2377 444.907 27.3444 445.12C27.4644 445.32 27.6244 445.487 27.8244 445.62C28.0244 445.753 28.2577 445.86 28.5244 445.94C28.791 446.007 29.0777 446.06 29.3844 446.1L31.0044 446.34C31.4044 446.407 31.8044 446.493 32.2044 446.6C32.6177 446.693 32.9844 446.84 33.3044 447.04C33.6377 447.24 33.9044 447.507 34.1044 447.84C34.3044 448.16 34.4044 448.58 34.4044 449.1C34.4044 449.62 34.2977 450.073 34.0844 450.46C33.8844 450.847 33.5977 451.173 33.2244 451.44C32.8644 451.707 32.4244 451.907 31.9044 452.04C31.3844 452.173 30.8177 452.24 30.2044 452.24ZM42.1366 452.24C40.6966 452.24 39.5632 451.773 38.7366 450.84C37.9232 449.893 37.5166 448.567 37.5166 446.86C37.5166 446.007 37.6232 445.247 37.8366 444.58C38.0499 443.9 38.3499 443.333 38.7366 442.88C39.1366 442.413 39.6166 442.06 40.1766 441.82C40.7366 441.567 41.3566 441.44 42.0366 441.44C42.7299 441.44 43.3499 441.567 43.8966 441.82C44.4432 442.06 44.9032 442.407 45.2766 442.86C45.6632 443.313 45.9566 443.853 46.1566 444.48C46.3566 445.107 46.4566 445.8 46.4566 446.56V447.06H38.7166V447.56C38.7166 448.667 39.0166 449.56 39.6166 450.24C40.2166 450.907 41.0566 451.24 42.1366 451.24C42.8966 451.24 43.5432 451.067 44.0766 450.72C44.6232 450.373 45.0432 449.86 45.3366 449.18L46.1966 449.72C45.8899 450.48 45.3899 451.093 44.6966 451.56C44.0032 452.013 43.1499 452.24 42.1366 452.24ZM42.0366 442.4C41.5299 442.4 41.0699 442.493 40.6566 442.68C40.2566 442.853 39.9099 443.1 39.6166 443.42C39.3366 443.74 39.1166 444.127 38.9566 444.58C38.7966 445.033 38.7166 445.533 38.7166 446.08V446.2H45.2366V446.04C45.2366 444.92 44.9499 444.033 44.3766 443.38C43.8166 442.727 43.0366 442.4 42.0366 442.4ZM56.6888 450.36H56.6288C56.3354 450.92 55.9221 451.373 55.3888 451.72C54.8688 452.067 54.2154 452.24 53.4288 452.24C52.1354 452.24 51.1288 451.78 50.4088 450.86C49.6888 449.927 49.3288 448.587 49.3288 446.84C49.3288 445.093 49.6888 443.76 50.4088 442.84C51.1288 441.907 52.1354 441.44 53.4288 441.44C54.2154 441.44 54.8688 441.613 55.3888 441.96C55.9221 442.307 56.3354 442.76 56.6288 443.32H56.6888V437.2H57.8288V452H56.6888V450.36ZM53.8088 451.22C54.1954 451.22 54.5621 451.167 54.9088 451.06C55.2554 450.953 55.5621 450.8 55.8288 450.6C56.0954 450.4 56.3021 450.153 56.4488 449.86C56.6088 449.567 56.6888 449.24 56.6888 448.88V444.8C56.6888 444.44 56.6088 444.113 56.4488 443.82C56.3021 443.527 56.0954 443.28 55.8288 443.08C55.5621 442.88 55.2554 442.727 54.9088 442.62C54.5621 442.513 54.1954 442.46 53.8088 442.46C52.7688 442.46 51.9621 442.787 51.3888 443.44C50.8288 444.093 50.5488 444.987 50.5488 446.12V447.56C50.5488 448.693 50.8288 449.587 51.3888 450.24C51.9621 450.893 52.7688 451.22 53.8088 451.22ZM78.5931 438.92C78.2331 438.92 77.9731 438.847 77.8131 438.7C77.6665 438.54 77.5931 438.347 77.5931 438.12V437.86C77.5931 437.633 77.6665 437.447 77.8131 437.3C77.9731 437.14 78.2331 437.06 78.5931 437.06C78.9531 437.06 79.2065 437.14 79.3531 437.3C79.5131 437.447 79.5931 437.633 79.5931 437.86V438.12C79.5931 438.347 79.5131 438.54 79.3531 438.7C79.2065 438.847 78.9531 438.92 78.5931 438.92ZM74.1531 451.02H78.0331V442.66H74.1531V441.68H79.1731V451.02H82.7931V452H74.1531V451.02ZM86.1253 452V441.68H87.2653V443.28H87.3453C87.5453 442.8 87.8786 442.373 88.3453 442C88.8253 441.627 89.4986 441.44 90.3653 441.44C91.4853 441.44 92.352 441.78 92.9653 442.46C93.592 443.127 93.9053 444.087 93.9053 445.34V452H92.7653V445.54C92.7653 444.473 92.532 443.693 92.0653 443.2C91.612 442.707 90.9453 442.46 90.0653 442.46C89.7053 442.46 89.3586 442.507 89.0253 442.6C88.692 442.693 88.392 442.833 88.1253 443.02C87.872 443.207 87.6653 443.447 87.5053 443.74C87.3453 444.02 87.2653 444.353 87.2653 444.74V452H86.1253ZM110.07 441.68H111.21V443.32H111.27C111.563 442.76 111.97 442.307 112.49 441.96C113.023 441.613 113.683 441.44 114.47 441.44C115.763 441.44 116.77 441.907 117.49 442.84C118.21 443.76 118.57 445.093 118.57 446.84C118.57 448.587 118.21 449.927 117.49 450.86C116.77 451.78 115.763 452.24 114.47 452.24C113.683 452.24 113.023 452.067 112.49 451.72C111.97 451.373 111.563 450.92 111.27 450.36H111.21V456H110.07V441.68ZM114.09 451.22C115.13 451.22 115.93 450.893 116.49 450.24C117.063 449.587 117.35 448.693 117.35 447.56V446.12C117.35 444.987 117.063 444.093 116.49 443.44C115.93 442.787 115.13 442.46 114.09 442.46C113.703 442.46 113.336 442.513 112.99 442.62C112.643 442.727 112.336 442.88 112.07 443.08C111.803 443.28 111.59 443.527 111.43 443.82C111.283 444.113 111.21 444.44 111.21 444.8V448.88C111.21 449.24 111.283 449.567 111.43 449.86C111.59 450.153 111.803 450.4 112.07 450.6C112.336 450.8 112.643 450.953 112.99 451.06C113.336 451.167 113.703 451.22 114.09 451.22ZM122.102 437.2H123.242V443.28H123.322C123.522 442.8 123.855 442.373 124.322 442C124.802 441.627 125.475 441.44 126.342 441.44C127.462 441.44 128.329 441.78 128.942 442.46C129.569 443.127 129.882 444.087 129.882 445.34V452H128.742V445.54C128.742 444.473 128.509 443.693 128.042 443.2C127.589 442.707 126.922 442.46 126.042 442.46C125.682 442.46 125.335 442.507 125.002 442.6C124.669 442.693 124.369 442.833 124.102 443.02C123.849 443.207 123.642 443.447 123.482 443.74C123.322 444.02 123.242 444.353 123.242 444.74V452H122.102V437.2ZM138.554 438.92C138.194 438.92 137.934 438.847 137.774 438.7C137.627 438.54 137.554 438.347 137.554 438.12V437.86C137.554 437.633 137.627 437.447 137.774 437.3C137.934 437.14 138.194 437.06 138.554 437.06C138.914 437.06 139.167 437.14 139.314 437.3C139.474 437.447 139.554 437.633 139.554 437.86V438.12C139.554 438.347 139.474 438.54 139.314 438.7C139.167 438.847 138.914 438.92 138.554 438.92ZM134.114 451.02H137.994V442.66H134.114V441.68H139.134V451.02H142.754V452H134.114V451.02ZM145.586 451.02H149.346V438.18H145.586V437.2H150.486V451.02H154.226V452H145.586V451.02ZM165.478 452C165.012 452 164.678 451.887 164.478 451.66C164.278 451.433 164.165 451.127 164.138 450.74V450.38H164.038C163.812 450.927 163.438 451.373 162.918 451.72C162.398 452.067 161.692 452.24 160.798 452.24C159.718 452.24 158.865 451.98 158.238 451.46C157.625 450.927 157.318 450.18 157.318 449.22C157.318 448.767 157.392 448.36 157.538 448C157.698 447.627 157.945 447.313 158.278 447.06C158.625 446.807 159.065 446.613 159.598 446.48C160.132 446.333 160.785 446.26 161.558 446.26H164.078V445C164.078 444.133 163.838 443.487 163.358 443.06C162.892 442.633 162.238 442.42 161.398 442.42C159.985 442.42 158.998 442.987 158.438 444.12L157.658 443.56C157.925 442.96 158.372 442.46 158.998 442.06C159.638 441.647 160.458 441.44 161.458 441.44C162.632 441.44 163.552 441.747 164.218 442.36C164.885 442.96 165.218 443.8 165.218 444.88V451H166.758V452H165.478ZM160.978 451.28C161.418 451.28 161.825 451.227 162.198 451.12C162.572 451.013 162.898 450.867 163.178 450.68C163.458 450.48 163.678 450.24 163.838 449.96C163.998 449.68 164.078 449.367 164.078 449.02V447.12H161.558C160.478 447.12 159.698 447.287 159.218 447.62C158.752 447.94 158.518 448.38 158.518 448.94V449.46C158.518 450.06 158.738 450.513 159.178 450.82C159.632 451.127 160.232 451.28 160.978 451.28ZM176.611 450.36H176.551C176.257 450.92 175.844 451.373 175.311 451.72C174.791 452.067 174.137 452.24 173.351 452.24C172.057 452.24 171.051 451.78 170.331 450.86C169.611 449.927 169.251 448.587 169.251 446.84C169.251 445.093 169.611 443.76 170.331 442.84C171.051 441.907 172.057 441.44 173.351 441.44C174.137 441.44 174.791 441.613 175.311 441.96C175.844 442.307 176.257 442.76 176.551 443.32H176.611V437.2H177.751V452H176.611V450.36ZM173.731 451.22C174.117 451.22 174.484 451.167 174.831 451.06C175.177 450.953 175.484 450.8 175.751 450.6C176.017 450.4 176.224 450.153 176.371 449.86C176.531 449.567 176.611 449.24 176.611 448.88V444.8C176.611 444.44 176.531 444.113 176.371 443.82C176.224 443.527 176.017 443.28 175.751 443.08C175.484 442.88 175.177 442.727 174.831 442.62C174.484 442.513 174.117 442.46 173.731 442.46C172.691 442.46 171.884 442.787 171.311 443.44C170.751 444.093 170.471 444.987 170.471 446.12V447.56C170.471 448.693 170.751 449.587 171.311 450.24C171.884 450.893 172.691 451.22 173.731 451.22ZM186.043 452.24C184.603 452.24 183.469 451.773 182.643 450.84C181.829 449.893 181.423 448.567 181.423 446.86C181.423 446.007 181.529 445.247 181.743 444.58C181.956 443.9 182.256 443.333 182.643 442.88C183.043 442.413 183.523 442.06 184.083 441.82C184.643 441.567 185.263 441.44 185.943 441.44C186.636 441.44 187.256 441.567 187.803 441.82C188.349 442.06 188.809 442.407 189.183 442.86C189.569 443.313 189.863 443.853 190.063 444.48C190.263 445.107 190.363 445.8 190.363 446.56V447.06H182.623V447.56C182.623 448.667 182.923 449.56 183.523 450.24C184.123 450.907 184.963 451.24 186.043 451.24C186.803 451.24 187.449 451.067 187.983 450.72C188.529 450.373 188.949 449.86 189.243 449.18L190.103 449.72C189.796 450.48 189.296 451.093 188.603 451.56C187.909 452.013 187.056 452.24 186.043 452.24ZM185.943 442.4C185.436 442.4 184.976 442.493 184.563 442.68C184.163 442.853 183.816 443.1 183.523 443.42C183.243 443.74 183.023 444.127 182.863 444.58C182.703 445.033 182.623 445.533 182.623 446.08V446.2H189.143V446.04C189.143 444.92 188.856 444.033 188.283 443.38C187.723 442.727 186.943 442.4 185.943 442.4ZM193.555 451.02H197.315V438.18H193.555V437.2H198.455V451.02H202.195V452H193.555V451.02ZM206.007 441.68H207.147V443.32H207.207C207.501 442.76 207.907 442.307 208.427 441.96C208.961 441.613 209.621 441.44 210.407 441.44C211.701 441.44 212.707 441.907 213.427 442.84C214.147 443.76 214.507 445.093 214.507 446.84C214.507 448.587 214.147 449.927 213.427 450.86C212.707 451.78 211.701 452.24 210.407 452.24C209.621 452.24 208.961 452.067 208.427 451.72C207.907 451.373 207.501 450.92 207.207 450.36H207.147V456H206.007V441.68ZM210.027 451.22C211.067 451.22 211.867 450.893 212.427 450.24C213.001 449.587 213.287 448.693 213.287 447.56V446.12C213.287 444.987 213.001 444.093 212.427 443.44C211.867 442.787 211.067 442.46 210.027 442.46C209.641 442.46 209.274 442.513 208.927 442.62C208.581 442.727 208.274 442.88 208.007 443.08C207.741 443.28 207.527 443.527 207.367 443.82C207.221 444.113 207.147 444.44 207.147 444.8V448.88C207.147 449.24 207.221 449.567 207.367 449.86C207.527 450.153 207.741 450.4 208.007 450.6C208.274 450.8 208.581 450.953 208.927 451.06C209.274 451.167 209.641 451.22 210.027 451.22ZM218.039 437.2H219.179V443.28H219.259C219.459 442.8 219.793 442.373 220.259 442C220.739 441.627 221.413 441.44 222.279 441.44C223.399 441.44 224.266 441.78 224.879 442.46C225.506 443.127 225.819 444.087 225.819 445.34V452H224.679V445.54C224.679 444.473 224.446 443.693 223.979 443.2C223.526 442.707 222.859 442.46 221.979 442.46C221.619 442.46 221.273 442.507 220.939 442.6C220.606 442.693 220.306 442.833 220.039 443.02C219.786 443.207 219.579 443.447 219.419 443.74C219.259 444.02 219.179 444.353 219.179 444.74V452H218.039V437.2ZM234.492 438.92C234.132 438.92 233.872 438.847 233.712 438.7C233.565 438.54 233.492 438.347 233.492 438.12V437.86C233.492 437.633 233.565 437.447 233.712 437.3C233.872 437.14 234.132 437.06 234.492 437.06C234.852 437.06 235.105 437.14 235.252 437.3C235.412 437.447 235.492 437.633 235.492 437.86V438.12C235.492 438.347 235.412 438.54 235.252 438.7C235.105 438.847 234.852 438.92 234.492 438.92ZM230.052 451.02H233.932V442.66H230.052V441.68H235.072V451.02H238.692V452H230.052V451.02ZM249.424 452C248.957 452 248.624 451.887 248.424 451.66C248.224 451.433 248.11 451.127 248.084 450.74V450.38H247.984C247.757 450.927 247.384 451.373 246.864 451.72C246.344 452.067 245.637 452.24 244.744 452.24C243.664 452.24 242.81 451.98 242.184 451.46C241.57 450.927 241.264 450.18 241.264 449.22C241.264 448.767 241.337 448.36 241.484 448C241.644 447.627 241.89 447.313 242.224 447.06C242.57 446.807 243.01 446.613 243.544 446.48C244.077 446.333 244.73 446.26 245.504 446.26H248.024V445C248.024 444.133 247.784 443.487 247.304 443.06C246.837 442.633 246.184 442.42 245.344 442.42C243.93 442.42 242.944 442.987 242.384 444.12L241.604 443.56C241.87 442.96 242.317 442.46 242.944 442.06C243.584 441.647 244.404 441.44 245.404 441.44C246.577 441.44 247.497 441.747 248.164 442.36C248.83 442.96 249.164 443.8 249.164 444.88V451H250.704V452H249.424ZM244.924 451.28C245.364 451.28 245.77 451.227 246.144 451.12C246.517 451.013 246.844 450.867 247.124 450.68C247.404 450.48 247.624 450.24 247.784 449.96C247.944 449.68 248.024 449.367 248.024 449.02V447.12H245.504C244.424 447.12 243.644 447.287 243.164 447.62C242.697 447.94 242.464 448.38 242.464 448.94V449.46C242.464 450.06 242.684 450.513 243.124 450.82C243.577 451.127 244.177 451.28 244.924 451.28ZM257.176 449.74H259.096L257.076 455.06H256.116L257.176 449.74ZM277.76 452V438.04H282.76C284 438.04 284.94 438.393 285.58 439.1C286.22 439.793 286.54 440.747 286.54 441.96C286.54 443.173 286.22 444.133 285.58 444.84C284.94 445.533 284 445.88 282.76 445.88H278.96V452H277.76ZM278.96 444.84H282.74C283.58 444.84 284.214 444.613 284.64 444.16C285.067 443.707 285.28 443.133 285.28 442.44V441.48C285.28 440.787 285.067 440.213 284.64 439.76C284.214 439.307 283.58 439.08 282.74 439.08H278.96V444.84ZM297.773 452L296.453 447.74H291.173L289.833 452H288.593L293.033 438.04H294.613L299.033 452H297.773ZM293.873 439.32H293.733L291.453 446.7H296.153L293.873 439.32ZM305.805 452.14C305.378 452.14 305.078 452.053 304.905 451.88C304.731 451.707 304.645 451.48 304.645 451.2V450.92C304.645 450.653 304.731 450.433 304.905 450.26C305.078 450.073 305.378 449.98 305.805 449.98C306.231 449.98 306.531 450.073 306.705 450.26C306.878 450.433 306.965 450.653 306.965 450.92V451.2C306.965 451.48 306.878 451.707 306.705 451.88C306.531 452.053 306.231 452.14 305.805 452.14Z" fill="black"/>
<path d="M9 566.36C8.06 566.36 7.22 566.27 6.48 566.09C5.74 565.91 5.07 565.67 4.47 565.37C3.87 565.05 3.33 564.67 2.85 564.23C2.39 563.79 1.97 563.31 1.59 562.79L2.91 561.71C3.69 562.71 4.55 563.48 5.49 564.02C6.43 564.54 7.62 564.8 9.06 564.8C10.74 564.8 12.03 564.43 12.93 563.69C13.83 562.93 14.28 561.84 14.28 560.42C14.28 559.12 13.9 558.16 13.14 557.54C12.4 556.92 11.34 556.5 9.96 556.28L7.62 555.89C6.58 555.71 5.71 555.44 5.01 555.08C4.33 554.72 3.78 554.3 3.36 553.82C2.94 553.32 2.64 552.77 2.46 552.17C2.3 551.57 2.22 550.95 2.22 550.31C2.22 548.43 2.83 547.03 4.05 546.11C5.29 545.17 6.95 544.7 9.03 544.7C10.73 544.7 12.12 544.98 13.2 545.54C14.3 546.08 15.18 546.83 15.84 547.79L14.58 548.9C13.98 548.06 13.24 547.41 12.36 546.95C11.5 546.49 10.37 546.26 8.97 546.26C7.41 546.26 6.19 546.6 5.31 547.28C4.45 547.94 4.02 548.93 4.02 550.25C4.02 551.47 4.38 552.4 5.1 553.04C5.82 553.66 6.89 554.08 8.31 554.3L10.62 554.69C11.68 554.87 12.56 555.15 13.26 555.53C13.96 555.89 14.52 556.32 14.94 556.82C15.36 557.32 15.65 557.87 15.81 558.47C15.99 559.07 16.08 559.7 16.08 560.36C16.08 562.28 15.46 563.76 14.22 564.8C12.98 565.84 11.24 566.36 9 566.36ZM27.5883 566.36C25.4283 566.36 23.7583 565.65 22.5783 564.23C21.3983 562.81 20.8083 560.82 20.8083 558.26C20.8083 555.7 21.3983 553.71 22.5783 552.29C23.7783 550.87 25.4383 550.16 27.5583 550.16C28.9983 550.16 30.1783 550.49 31.0983 551.15C32.0183 551.79 32.6783 552.62 33.0783 553.64L31.6983 554.33C31.3783 553.47 30.8683 552.81 30.1683 552.35C29.4683 551.89 28.5983 551.66 27.5583 551.66C25.9783 551.66 24.7583 552.17 23.8983 553.19C23.0583 554.19 22.6383 555.52 22.6383 557.18V559.34C22.6383 561 23.0583 562.34 23.8983 563.36C24.7583 564.36 25.9883 564.86 27.5883 564.86C28.6883 564.86 29.6083 564.61 30.3483 564.11C31.0883 563.61 31.6583 562.91 32.0583 562.01L33.3183 562.82C32.8783 563.84 32.1883 564.69 31.2483 565.37C30.3083 566.03 29.0883 566.36 27.5883 566.36ZM38.3166 564.53H43.1766V551.99H38.3166V550.52H44.8866V554.06H45.0066C45.3466 552.98 45.9266 552.12 46.7466 551.48C47.5866 550.84 48.6866 550.52 50.0466 550.52H52.7166V552.2H49.5366C48.1366 552.2 47.0066 552.62 46.1466 553.46C45.3066 554.28 44.8866 555.39 44.8866 556.79V564.53H51.1866V566H38.3166V564.53ZM62.9648 566.36C60.8448 566.36 59.1848 565.65 57.9848 564.23C56.8048 562.81 56.2148 560.82 56.2148 558.26C56.2148 555.7 56.8048 553.71 57.9848 552.29C59.1848 550.87 60.8448 550.16 62.9648 550.16C65.0848 550.16 66.7348 550.87 67.9148 552.29C69.1148 553.71 69.7148 555.7 69.7148 558.26C69.7148 560.82 69.1148 562.81 67.9148 564.23C66.7348 565.65 65.0848 566.36 62.9648 566.36ZM62.9648 564.86C64.4848 564.86 65.6848 564.38 66.5648 563.42C67.4448 562.46 67.8848 561.06 67.8848 559.22V557.3C67.8848 555.46 67.4448 554.06 66.5648 553.1C65.6848 552.14 64.4848 551.66 62.9648 551.66C61.4448 551.66 60.2448 552.14 59.3648 553.1C58.4848 554.06 58.0448 555.46 58.0448 557.3V559.22C58.0448 561.06 58.4848 562.46 59.3648 563.42C60.2448 564.38 61.4448 564.86 62.9648 564.86ZM74.4731 564.53H80.1131V545.27H74.4731V543.8H81.8231V564.53H87.4331V566H74.4731V564.53ZM92.4614 564.53H98.1014V545.27H92.4614V543.8H99.8114V564.53H105.421V566H92.4614V564.53ZM134.978 566C134.138 566 133.518 565.78 133.118 565.34C132.738 564.88 132.548 564.27 132.548 563.51V551.99H127.058V550.52H131.408C131.848 550.52 132.158 550.43 132.338 550.25C132.518 550.07 132.608 549.76 132.608 549.32V545.06H134.258V550.52H141.638V551.99H134.258V564.53H141.638V566H134.978ZM152.906 566.36C150.786 566.36 149.126 565.65 147.926 564.23C146.746 562.81 146.156 560.82 146.156 558.26C146.156 555.7 146.746 553.71 147.926 552.29C149.126 550.87 150.786 550.16 152.906 550.16C155.026 550.16 156.676 550.87 157.856 552.29C159.056 553.71 159.656 555.7 159.656 558.26C159.656 560.82 159.056 562.81 157.856 564.23C156.676 565.65 155.026 566.36 152.906 566.36ZM152.906 564.86C154.426 564.86 155.626 564.38 156.506 563.42C157.386 562.46 157.826 561.06 157.826 559.22V557.3C157.826 555.46 157.386 554.06 156.506 553.1C155.626 552.14 154.426 551.66 152.906 551.66C151.386 551.66 150.186 552.14 149.306 553.1C148.426 554.06 147.986 555.46 147.986 557.3V559.22C147.986 561.06 148.426 562.46 149.306 563.42C150.186 564.38 151.386 564.86 152.906 564.86ZM189.213 566.36C187.653 566.36 186.293 566.1 185.133 565.58C183.993 565.04 183.003 564.29 182.163 563.33L183.333 562.31C184.093 563.19 184.943 563.85 185.883 564.29C186.823 564.71 187.943 564.92 189.243 564.92C190.603 564.92 191.703 564.66 192.543 564.14C193.403 563.62 193.833 562.82 193.833 561.74C193.833 561.26 193.743 560.87 193.563 560.57C193.403 560.25 193.173 559.99 192.873 559.79C192.573 559.59 192.223 559.44 191.823 559.34C191.423 559.22 190.983 559.13 190.503 559.07L188.103 558.74C187.503 558.66 186.893 558.55 186.273 558.41C185.673 558.25 185.123 558.02 184.623 557.72C184.143 557.42 183.743 557.02 183.423 556.52C183.123 556.02 182.973 555.38 182.973 554.6C182.973 553.84 183.123 553.18 183.423 552.62C183.723 552.06 184.143 551.6 184.683 551.24C185.223 550.88 185.853 550.61 186.573 550.43C187.313 550.25 188.103 550.16 188.943 550.16C190.383 550.16 191.593 550.4 192.573 550.88C193.573 551.34 194.413 551.92 195.093 552.62L193.953 553.7C193.733 553.46 193.473 553.22 193.173 552.98C192.893 552.72 192.543 552.49 192.123 552.29C191.723 552.09 191.253 551.93 190.713 551.81C190.173 551.67 189.553 551.6 188.853 551.6C187.533 551.6 186.503 551.84 185.763 552.32C185.043 552.8 184.683 553.52 184.683 554.48C184.683 554.96 184.763 555.36 184.923 555.68C185.103 555.98 185.343 556.23 185.643 556.43C185.943 556.63 186.293 556.79 186.693 556.91C187.093 557.01 187.523 557.09 187.983 557.15L190.413 557.51C191.013 557.61 191.613 557.74 192.213 557.9C192.833 558.04 193.383 558.26 193.863 558.56C194.363 558.86 194.763 559.26 195.063 559.76C195.363 560.24 195.513 560.87 195.513 561.65C195.513 562.43 195.353 563.11 195.033 563.69C194.733 564.27 194.303 564.76 193.743 565.16C193.203 565.56 192.543 565.86 191.763 566.06C190.983 566.26 190.133 566.36 189.213 566.36ZM207.111 566.36C204.951 566.36 203.251 565.66 202.011 564.26C200.791 562.84 200.181 560.85 200.181 558.29C200.181 557.01 200.341 555.87 200.661 554.87C200.981 553.85 201.431 553 202.011 552.32C202.611 551.62 203.331 551.09 204.171 550.73C205.011 550.35 205.941 550.16 206.961 550.16C208.001 550.16 208.931 550.35 209.751 550.73C210.571 551.09 211.261 551.61 211.821 552.29C212.401 552.97 212.841 553.78 213.141 554.72C213.441 555.66 213.591 556.7 213.591 557.84V558.59H201.981V559.34C201.981 561 202.431 562.34 203.331 563.36C204.231 564.36 205.491 564.86 207.111 564.86C208.251 564.86 209.221 564.6 210.021 564.08C210.841 563.56 211.471 562.79 211.911 561.77L213.201 562.58C212.741 563.72 211.991 564.64 210.951 565.34C209.911 566.02 208.631 566.36 207.111 566.36ZM206.961 551.6C206.201 551.6 205.511 551.74 204.891 552.02C204.291 552.28 203.771 552.65 203.331 553.13C202.911 553.61 202.581 554.19 202.341 554.87C202.101 555.55 201.981 556.3 201.981 557.12V557.3H211.761V557.06C211.761 555.38 211.331 554.05 210.471 553.07C209.631 552.09 208.461 551.6 206.961 551.6ZM225.099 566.36C222.939 566.36 221.239 565.66 219.999 564.26C218.779 562.84 218.169 560.85 218.169 558.29C218.169 557.01 218.329 555.87 218.649 554.87C218.969 553.85 219.419 553 219.999 552.32C220.599 551.62 221.319 551.09 222.159 550.73C222.999 550.35 223.929 550.16 224.949 550.16C225.989 550.16 226.919 550.35 227.739 550.73C228.559 551.09 229.249 551.61 229.809 552.29C230.389 552.97 230.829 553.78 231.129 554.72C231.429 555.66 231.579 556.7 231.579 557.84V558.59H219.969V559.34C219.969 561 220.419 562.34 221.319 563.36C222.219 564.36 223.479 564.86 225.099 564.86C226.239 564.86 227.209 564.6 228.009 564.08C228.829 563.56 229.459 562.79 229.899 561.77L231.189 562.58C230.729 563.72 229.979 564.64 228.939 565.34C227.899 566.02 226.619 566.36 225.099 566.36ZM224.949 551.6C224.189 551.6 223.499 551.74 222.879 552.02C222.279 552.28 221.759 552.65 221.319 553.13C220.899 553.61 220.569 554.19 220.329 554.87C220.089 555.55 219.969 556.3 219.969 557.12V557.3H229.749V557.06C229.749 555.38 229.319 554.05 228.459 553.07C227.619 552.09 226.449 551.6 224.949 551.6ZM253.696 566V550.52H255.286V552.32H255.376C255.616 551.72 255.966 551.21 256.426 550.79C256.906 550.37 257.576 550.16 258.436 550.16C259.316 550.16 259.996 550.38 260.476 550.82C260.956 551.24 261.256 551.83 261.376 552.59H261.436C261.716 551.89 262.116 551.31 262.636 550.85C263.156 550.39 263.876 550.16 264.796 550.16C265.996 550.16 266.826 550.56 267.286 551.36C267.766 552.14 268.006 553.28 268.006 554.78V566H266.416V555.05C266.416 553.79 266.236 552.9 265.876 552.38C265.536 551.86 264.986 551.6 264.226 551.6C263.506 551.6 262.896 551.85 262.396 552.35C261.896 552.83 261.646 553.57 261.646 554.57V566H260.056V555.05C260.056 553.79 259.876 552.9 259.516 552.38C259.176 551.86 258.626 551.6 257.866 551.6C257.146 551.6 256.536 551.85 256.036 552.35C255.536 552.83 255.286 553.57 255.286 554.57V566H253.696ZM284.164 550.52H285.874L277.804 570.2C277.544 570.82 277.214 571.27 276.814 571.55C276.434 571.85 275.834 572 275.014 572H272.434V570.53H275.944L277.984 565.58L271.774 550.52H273.544L278.794 563.51H278.914L284.164 550.52ZM306.791 550.52H308.321L310.511 564.5H310.721L313.841 550.52H315.821L318.941 564.5H319.151L321.311 550.52H322.811L320.231 566H317.921L314.921 552.29H314.741L311.681 566H309.371L306.791 550.52ZM332.789 566.36C330.669 566.36 329.009 565.65 327.809 564.23C326.629 562.81 326.039 560.82 326.039 558.26C326.039 555.7 326.629 553.71 327.809 552.29C329.009 550.87 330.669 550.16 332.789 550.16C334.909 550.16 336.559 550.87 337.739 552.29C338.939 553.71 339.539 555.7 339.539 558.26C339.539 560.82 338.939 562.81 337.739 564.23C336.559 565.65 334.909 566.36 332.789 566.36ZM332.789 564.86C334.309 564.86 335.509 564.38 336.389 563.42C337.269 562.46 337.709 561.06 337.709 559.22V557.3C337.709 555.46 337.269 554.06 336.389 553.1C335.509 552.14 334.309 551.66 332.789 551.66C331.269 551.66 330.069 552.14 329.189 553.1C328.309 554.06 327.869 555.46 327.869 557.3V559.22C327.869 561.06 328.309 562.46 329.189 563.42C330.069 564.38 331.269 564.86 332.789 564.86ZM344.117 564.53H348.977V551.99H344.117V550.52H350.687V554.06H350.807C351.147 552.98 351.727 552.12 352.547 551.48C353.387 550.84 354.487 550.52 355.847 550.52H358.517V552.2H355.337C353.937 552.2 352.807 552.62 351.947 553.46C351.107 554.28 350.687 555.39 350.687 556.79V564.53H356.987V566H344.117V564.53ZM363.306 543.8H365.016V558.44H365.136L368.166 555.68L373.926 550.52H376.056L369.426 556.58L376.836 566H374.706L368.106 557.6L365.016 560.33V566H363.306V543.8Z" fill="black"/>
<path d="M459.542 568.596C457.661 570.618 457.777 573.782 459.799 575.662C461.822 577.542 464.985 577.427 466.866 575.404L484.193 556.766C486.691 554.08 486.691 549.92 484.193 547.234L466.866 528.596C464.985 526.573 461.822 526.458 459.799 528.338C457.777 530.218 457.661 533.382 459.542 535.404L470.322 547L413 547C410.239 547 408 549.239 408 552C408 554.761 410.239 557 413 557L470.322 557L459.542 568.596Z" fill="#FF0000"/>
</svg>
