<svg width="58" height="232" viewBox="0 0 58 232" fill="none" xmlns="http://www.w3.org/2000/svg">
<path d="M42.48 3.21L42.48 4.92L40.02 4.92L40.02 5.01C40.86 5.45 41.54 6.06 42.06 6.84C42.58 7.64 42.84 8.63 42.84 9.81C42.84 11.75 42.14 13.26 40.74 14.34C39.36 15.42 37.36 15.96 34.74 15.96C32.12 15.96 30.11 15.42 28.71 14.34C27.33 13.26 26.64 11.75 26.64 9.81C26.64 8.63 26.9 7.64 27.42 6.84C27.94 6.06 28.62 5.45 29.46 5.01L29.46 4.92L21 4.92L21 3.21L42.48 3.21ZM28.17 9.24C28.17 10.8 28.66 12 29.64 12.84C30.62 13.7 31.96 14.13 33.66 14.13L35.82 14.13C37.52 14.13 38.86 13.7 39.84 12.84C40.82 12 41.31 10.8 41.31 9.24C41.31 8.66 41.23 8.11 41.07 7.59C40.91 7.07 40.68 6.61 40.38 6.21C40.08 5.81 39.71 5.49 39.27 5.25C38.83 5.03 38.34 4.92 37.8 4.92L31.68 4.92C31.14 4.92 30.65 5.03 30.21 5.25C29.77 5.49 29.4 5.81 29.1 6.21C28.8 6.61 28.57 7.07 28.41 7.59C28.25 8.11 28.17 8.66 28.17 9.24ZM28.47 20.3283L28.47 25.1883L41.01 25.1883L41.01 20.3283L42.48 20.3283L42.48 26.8983L38.94 26.8983L38.94 27.0183C40.02 27.3583 40.88 27.9383 41.52 28.7583C42.16 29.5983 42.48 30.6983 42.48 32.0583L42.48 34.7283L40.8 34.7283L40.8 31.5483C40.8 30.1483 40.38 29.0183 39.54 28.1583C38.72 27.3183 37.61 26.8983 36.21 26.8983L28.47 26.8983L28.47 33.1983L27 33.1983L27 20.3283L28.47 20.3283ZM26.64 44.9766C26.64 42.8566 27.35 41.1966 28.77 39.9966C30.19 38.8166 32.18 38.2266 34.74 38.2266C37.3 38.2266 39.29 38.8166 40.71 39.9966C42.13 41.1966 42.84 42.8566 42.84 44.9766C42.84 47.0966 42.13 48.7466 40.71 49.9266C39.29 51.1266 37.3 51.7266 34.74 51.7266C32.18 51.7266 30.19 51.1266 28.77 49.9266C27.35 48.7466 26.64 47.0966 26.64 44.9766ZM28.14 44.9766C28.14 46.4966 28.62 47.6966 29.58 48.5766C30.54 49.4566 31.94 49.8966 33.78 49.8966L35.7 49.8966C37.54 49.8966 38.94 49.4566 39.9 48.5766C40.86 47.6966 41.34 46.4966 41.34 44.9766C41.34 43.4566 40.86 42.2566 39.9 41.3766C38.94 40.4966 37.54 40.0566 35.7 40.0566L33.78 40.0566C31.94 40.0566 30.54 40.4966 29.58 41.3766C28.62 42.2566 28.14 43.4566 28.14 44.9766ZM22.47 57.1448L22.47 65.1548L41.01 65.1548L41.01 56.7848L42.48 56.7848L42.48 66.8648L23.49 66.8648C22.73 66.8648 22.13 66.6648 21.69 66.2648C21.23 65.8848 21 65.2748 21 64.4348L21 57.1448L22.47 57.1448ZM46.62 66.0248C46.62 65.4848 46.73 65.0948 46.95 64.8548C47.19 64.6348 47.48 64.5248 47.82 64.5248L48.21 64.5248C48.55 64.5248 48.83 64.6348 49.05 64.8548C49.29 65.0948 49.41 65.4848 49.41 66.0248C49.41 66.5648 49.29 66.9448 49.05 67.1648C48.83 67.3848 48.55 67.4948 48.21 67.4948L47.82 67.4948C47.48 67.4948 47.19 67.3848 46.95 67.1648C46.73 66.9448 46.62 66.5648 46.62 66.0248ZM26.64 81.1931C26.64 79.0331 27.34 77.3331 28.74 76.0931C30.16 74.8731 32.15 74.2631 34.71 74.2631C35.99 74.2631 37.13 74.4231 38.13 74.7431C39.15 75.0631 40 75.5131 40.68 76.0931C41.38 76.6931 41.91 77.4131 42.27 78.2531C42.65 79.0931 42.84 80.0231 42.84 81.0431C42.84 82.0831 42.65 83.0131 42.27 83.8331C41.91 84.6531 41.39 85.3431 40.71 85.9031C40.03 86.4831 39.22 86.9231 38.28 87.2231C37.34 87.5231 36.3 87.6731 35.16 87.6731L34.41 87.6731L34.41 76.0631L33.66 76.0631C32 76.0631 30.66 76.5131 29.64 77.4131C28.64 78.3131 28.14 79.5731 28.14 81.1931C28.14 82.3331 28.4 83.3031 28.92 84.1031C29.44 84.9231 30.21 85.5531 31.23 85.9931L30.42 87.2831C29.28 86.8231 28.36 86.0731 27.66 85.0331C26.98 83.9931 26.64 82.7131 26.64 81.1931ZM41.4 81.0431C41.4 80.2831 41.26 79.5931 40.98 78.9731C40.72 78.3731 40.35 77.8531 39.87 77.4131C39.39 76.9931 38.81 76.6631 38.13 76.4231C37.45 76.1831 36.7 76.0631 35.88 76.0631L35.7 76.0631L35.7 85.8431L35.94 85.8431C37.62 85.8431 38.95 85.4131 39.93 84.5531C40.91 83.7131 41.4 82.5431 41.4 81.0431ZM26.64 99.5414C26.64 97.3814 27.35 95.7114 28.77 94.5314C30.19 93.3514 32.18 92.7614 34.74 92.7614C37.3 92.7614 39.29 93.3514 40.71 94.5314C42.13 95.7314 42.84 97.3914 42.84 99.5114C42.84 100.951 42.51 102.131 41.85 103.051C41.21 103.971 40.38 104.631 39.36 105.031L38.67 103.651C39.53 103.331 40.19 102.821 40.65 102.121C41.11 101.421 41.34 100.551 41.34 99.5114C41.34 97.9314 40.83 96.7114 39.81 95.8514C38.81 95.0114 37.48 94.5914 35.82 94.5914L33.66 94.5914C32 94.5914 30.66 95.0114 29.64 95.8514C28.64 96.7114 28.14 97.9414 28.14 99.5414C28.14 100.641 28.39 101.561 28.89 102.301C29.39 103.041 30.09 103.611 30.99 104.011L30.18 105.271C29.16 104.831 28.31 104.141 27.63 103.201C26.97 102.261 26.64 101.041 26.64 99.5414ZM27 116.99C27 116.15 27.22 115.53 27.66 115.13C28.12 114.75 28.73 114.56 29.49 114.56L41.01 114.56L41.01 109.07L42.48 109.07L42.48 113.42C42.48 113.86 42.57 114.17 42.75 114.35C42.93 114.53 43.24 114.62 43.68 114.62L47.94 114.62L47.94 116.27L42.48 116.27L42.48 123.65L41.01 123.65L41.01 116.27L28.47 116.27L28.47 123.65L27 123.65L27 116.99ZM26.64 135.248C26.64 133.688 26.9 132.328 27.42 131.168C27.96 130.028 28.71 129.038 29.67 128.198L30.69 129.368C29.81 130.128 29.15 130.978 28.71 131.918C28.29 132.858 28.08 133.978 28.08 135.278C28.08 136.638 28.34 137.738 28.86 138.578C29.38 139.438 30.18 139.868 31.26 139.868C31.74 139.868 32.13 139.778 32.43 139.598C32.75 139.438 33.01 139.208 33.21 138.908C33.41 138.608 33.56 138.258 33.66 137.858C33.78 137.458 33.87 137.018 33.93 136.538L34.26 134.138C34.34 133.538 34.45 132.928 34.59 132.308C34.75 131.708 34.98 131.158 35.28 130.658C35.58 130.178 35.98 129.778 36.48 129.458C36.98 129.158 37.62 129.008 38.4 129.008C39.16 129.008 39.82 129.158 40.38 129.458C40.94 129.758 41.4 130.178 41.76 130.718C42.12 131.258 42.39 131.888 42.57 132.608C42.75 133.348 42.84 134.138 42.84 134.978C42.84 136.418 42.6 137.628 42.12 138.608C41.66 139.608 41.08 140.448 40.38 141.128L39.3 139.988C39.54 139.768 39.78 139.508 40.02 139.208C40.28 138.928 40.51 138.578 40.71 138.158C40.91 137.758 41.07 137.288 41.19 136.748C41.33 136.208 41.4 135.588 41.4 134.888C41.4 133.568 41.16 132.538 40.68 131.798C40.2 131.078 39.48 130.718 38.52 130.718C38.04 130.718 37.64 130.798 37.32 130.958C37.02 131.138 36.77 131.378 36.57 131.678C36.37 131.978 36.21 132.328 36.09 132.728C35.99 133.128 35.91 133.558 35.85 134.018L35.49 136.448C35.39 137.048 35.26 137.648 35.1 138.248C34.96 138.868 34.74 139.418 34.44 139.898C34.14 140.398 33.74 140.798 33.24 141.098C32.76 141.398 32.13 141.548 31.35 141.548C30.57 141.548 29.89 141.388 29.31 141.068C28.73 140.768 28.24 140.338 27.84 139.778C27.44 139.238 27.14 138.578 26.94 137.798C26.74 137.018 26.64 136.168 26.64 135.248Z" fill="white"/>
<rect x="11" y="5" width="4" height="91" fill="white"/>
</svg>
