<svg width="1407" height="476" viewBox="0 0 1407 476" fill="none" xmlns="http://www.w3.org/2000/svg">
<path d="M103.81 167.42L104.32 167.62V167.42H103.81Z" fill="black"/>
<path d="M1348.04 317.65H1265.61V400.08H1348.04V317.65Z" fill="black"/>
<path d="M0 93.1303V398.49H12.56V105.88H2.73V95.8803H451.57L451.84 94.5103V88.7803L484.76 55.8303H673.67L680.1 58.6703L680.33 58.7903L681.19 59.1803H681.31H681.39C682.064 59.3892 682.775 59.4503 683.475 59.3594C684.175 59.2685 684.847 59.0278 685.446 58.6537C686.044 58.2796 686.555 57.7808 686.943 57.1914C687.332 56.6021 687.588 55.9359 687.696 55.2384C687.803 54.5409 687.759 53.8283 687.566 53.1494C687.374 52.4704 687.037 51.841 686.579 51.304C686.121 50.7671 685.552 50.3351 684.912 50.0377C684.272 49.7402 683.576 49.5842 682.87 49.5803C682.363 49.5726 681.859 49.6679 681.39 49.8603H681.32L681.16 49.9303L680.77 50.0503L673.48 53.0503H483.63L449.11 87.6003V93.1303H441.94V87.5103L482.26 47.2303H633.69L643.32 37.5903V27.8803L649.21 15.0503V14.9803C650.283 13.4029 650.855 11.5382 650.85 9.63034C650.769 7.1287 649.719 4.75649 647.921 3.01538C646.123 1.27427 643.718 0.300781 641.215 0.300781C638.712 0.300781 636.307 1.27427 634.509 3.01538C632.711 4.75649 631.661 7.1287 631.58 9.63034C631.559 10.6274 631.718 11.6201 632.05 12.5603L633.05 14.7403L639.05 28.0403V35.8803L631.98 43.1303H480.51L437.8 85.8703V93.1303H0Z" fill="black"/>
<path d="M466.11 105.61H471.61V104.94L466.11 105.61Z" fill="black"/>
<path d="M366.82 104.91C372.82 104.91 378.68 105.1 384.26 105.61H466.12L471.61 104.94L366.82 104.91Z" fill="black"/>
<path d="M466.11 105.61H471.61V104.94L466.11 105.61Z" fill="black"/>
<path d="M534.71 105.13V105.64H534.79V105.13H534.71Z" fill="black"/>
<path d="M895.21 206.37L895.13 206.22C895.13 206.22 895.17 206.34 895.21 206.37Z" fill="black"/>
<path d="M910.53 206.22L910.49 206.38V206.22H910.53Z" fill="black"/>
<path d="M22.7803 398.72V475.13H1395.32V256.22H1395.64L1402.58 240.66H1402.5C1403.26 239.231 1403.64 237.636 1403.63 236.02C1403.63 233.32 1402.56 230.731 1400.65 228.821C1398.74 226.912 1396.15 225.84 1393.45 225.84C1390.75 225.84 1388.16 226.912 1386.25 228.821C1384.34 230.731 1383.27 233.32 1383.27 236.02C1383.25 237.638 1383.65 239.233 1384.41 240.66H1384.29L1390.49 256.06V470.32H27.6203V399.07H77.6203V140.63H185.95V148.43H85.3703V399.07H87.8703V398.99H92.7803V399.07H104.32V184.81L109.81 192.22V439.44H236.45L241.99 452.69H279.2L284.3 455L284.62 455.15L285.28 455.42H285.36C285.746 455.567 286.158 455.635 286.57 455.62C287.631 455.62 288.649 455.198 289.399 454.448C290.149 453.698 290.57 452.681 290.57 451.62C290.57 450.559 290.149 449.542 289.399 448.791C288.649 448.041 287.631 447.62 286.57 447.62C286.159 447.624 285.751 447.691 285.36 447.82L284.85 448.01L279.2 450.35H243.55L238.01 437.13H112.16V191.44L104.32 180.87V167.62L103.81 167.42H109.97L119.02 178.3V420.99H220.42V416.13H123.94V176.55L116.38 167.42H357.15V195.27L363.32 206.93V335.82L351.03 348.13H301.23V353.04H353.06L368.32 337.88V205.72L362.12 194.02V167.42H369.32V194.29L375.52 205.29V343.93L359.32 360.13H284.46V360.29L271.63 354.36L271.98 354.63C270.929 354.029 269.716 353.77 268.51 353.89C266.224 353.89 264.032 354.798 262.415 356.415C260.798 358.031 259.89 360.224 259.89 362.51C259.89 364.796 260.798 366.988 262.415 368.605C264.032 370.222 266.224 371.13 268.51 371.13C269.95 371.159 271.373 370.814 272.64 370.13L284.97 365.13H361.36L380.43 345.99V203.99L374.23 192.99V167.42H392.87V263.42L392.64 263.35V399.07H393.38V401.41H951.22L931.09 413.97H906.92V428.13H764.92L759.42 425.67C758.779 425.23 758.018 425 757.24 425.01C756.688 424.982 756.136 425.068 755.618 425.26C755.1 425.452 754.626 425.748 754.226 426.129C753.825 426.51 753.506 426.969 753.289 427.477C753.071 427.985 752.958 428.532 752.958 429.085C752.958 429.638 753.071 430.185 753.289 430.693C753.506 431.201 753.825 431.659 754.226 432.04C754.626 432.421 755.1 432.717 755.618 432.91C756.136 433.102 756.688 433.187 757.24 433.16C757.94 433.168 758.63 432.992 759.24 432.65L765.05 430.27H909.06V416.13H931.76L955.32 401.41H983.52L947.32 423.87H922.32V442.36H818.62L813.16 439.94L813.01 439.86C812.59 439.679 812.137 439.588 811.68 439.59C810.75 439.592 809.859 439.963 809.201 440.621C808.544 441.278 808.173 442.17 808.17 443.1C808.161 443.565 808.245 444.028 808.418 444.46C808.59 444.892 808.848 445.286 809.175 445.617C809.502 445.948 809.893 446.21 810.323 446.387C810.753 446.565 811.215 446.654 811.68 446.65C812.135 446.632 812.584 446.541 813.01 446.38H813.09L818.31 444.31H924.32V425.82H947.87L987.14 401.41H987.3V325.21H648V332.03H980.86V338.43H661.32C658.67 338.43 656.14 338.31 653.76 338.08H617.23V284.22L617.31 281.49H914.95C931.02 281.49 950.32 281.49 966.23 281.3C981.48 281.3 993.61 281.06 996.85 280.87C996.92 280.87 996.96 280.87 997.04 280.87V169.87H1103.94V218.54L1065.21 262.49H1032.21L1026.55 260.38L1025.66 260.03C1025.25 259.917 1024.83 259.88 1024.41 259.92C1023.87 259.942 1023.35 260.072 1022.87 260.302C1022.38 260.532 1021.95 260.856 1021.59 261.256C1021.24 261.656 1020.96 262.124 1020.79 262.631C1020.62 263.139 1020.55 263.675 1020.59 264.21C1020.67 265.296 1021.17 266.308 1021.98 267.03C1022.8 267.752 1023.86 268.125 1024.95 268.07C1025.37 268.02 1025.77 267.912 1026.16 267.75L1026.55 267.56L1032.36 264.79H1066.21L1106.21 219.44V169.84H1112.32V224.13L1071.84 271.52V299.87L1050.66 326.87L1044.38 329.25L1043.06 329.75C1042.62 329.943 1042.22 330.222 1041.89 330.57C1041.07 331.448 1040.63 332.608 1040.65 333.807C1040.68 335.005 1041.17 336.147 1042.02 336.992C1042.87 337.837 1044.01 338.319 1045.21 338.335C1046.41 338.351 1047.57 337.901 1048.44 337.08C1048.78 336.765 1049.05 336.379 1049.22 335.95L1049.57 335.13L1052.26 328.82L1074.26 300.74V272.4L1114.74 225.06V169.84H1121.95V401.41H1131.16V401.33H1135.6V155.99L635.95 157.36L691.8 195.46H928.21V207.13H688.21L598.21 145.75L1147.31 144.23V401.41H1202.88V169.84H1383.49V175.45H1209.78V377.19H1241.64V382.19H1258.96V370.99H1241.64V374.19H1212.78V178.46H1386.56V105.26C1386.44 105.37 541.85 105.1 534.75 105.1V105.61H534.67V355.13H521.42V89.6998H1402.63V194.25H1279.51L1265.66 190.82C1265.55 190.82 1265.43 190.82 1265.27 190.82C1264.96 190.773 1264.65 190.747 1264.34 190.74C1262.59 190.74 1260.92 191.434 1259.68 192.67C1258.44 193.906 1257.75 195.582 1257.75 197.33C1257.75 199.078 1258.44 200.754 1259.68 201.99C1260.92 203.226 1262.59 203.92 1264.34 203.92C1264.67 203.917 1265.01 203.894 1265.34 203.85C1265.46 203.85 1265.58 203.85 1265.65 203.85L1267.45 203.14L1280.24 198.23H1406.52V85.7998H517.52V140.71L506.71 156.34V323.13H509.05V157.05L517.52 144.8V355.13H474.23V104.94H471.61V105.61H384.26C378.68 105.1 372.83 104.91 366.82 104.91H22.8203V398.72H22.7803ZM813.2 446.06L813.12 446.14V446.06H813.2ZM590.91 282.7H597.74V356.6H965.06V363.43H590.91V282.7ZM460.15 211.25H465.1V355.13H460.15V211.25Z" fill="black"/>
<path d="M805.25 446.06V446.13L805.32 446.05L805.25 446.06Z" fill="black"/>
<path d="M805.25 446.06V446.13L805.32 446.05L805.25 446.06Z" fill="black"/>
<path d="M966.23 281.3H996.851V280.87C993.611 281.06 981.48 281.26 966.23 281.3Z" fill="black"/>
<path d="M895.21 206.37L895.13 206.22C895.13 206.22 895.17 206.34 895.21 206.37Z" fill="black"/>
<path d="M910.53 206.22L910.49 206.38V206.22H910.53Z" fill="black"/>
<path d="M895.17 206.22C895.17 206.22 895.17 206.34 895.17 206.37L895.09 206.22H895.17Z" fill="black"/>
<path d="M910.53 206.22L910.49 206.38V206.22H910.53Z" fill="black"/>
<path d="M1265.66 203.77C1266.3 203.642 1266.91 203.401 1267.46 203.06L1265.66 203.77Z" fill="black"/>
<path d="M1265.32 203.81V203.88L1265.63 203.77C1265.59 203.77 1265.47 203.81 1265.32 203.81Z" fill="black"/>
<path d="M1247.03 181.02C1246.92 181.02 1246.8 181.02 1246.64 181.02V180.94L1247.03 181.02Z" fill="black"/>
<path d="M1258.93 328.76V317.59H1241.61V328.76H1258.93Z" fill="black"/>
<path d="M1258.94 346.56V335.39H1241.62V346.56H1258.94Z" fill="black"/>
<path d="M1258.94 364.35V353.18H1241.62V364.35H1258.94Z" fill="black"/>
<path d="M104.32 167.42H103.81L104.32 167.62V167.42ZM534.75 105.13V105.64H534.83L534.75 105.13Z" fill="black"/>
<path d="M1258.94 399.94V388.77H1241.62V399.94H1258.94Z" fill="black"/>
<path d="M1276.91 293.38H1265.74V310.7H1276.91V293.38Z" fill="black"/>
<path d="M1294.71 293.38H1283.54V310.7H1294.71V293.38Z" fill="black"/>
<path d="M1312.5 293.38H1301.33V310.7H1312.5V293.38Z" fill="black"/>
<path d="M1330.3 293.38H1319.13V310.7H1330.3V293.38Z" fill="black"/>
<path d="M1348.1 293.38H1336.93V310.7H1348.1V293.38Z" fill="black"/>
<path d="M1372.4 328.901V317.73H1355.08V328.901H1372.4Z" fill="black"/>
<path d="M1372.39 346.69V335.52H1355.07V346.69H1372.39Z" fill="black"/>
<path d="M1372.4 364.49V353.32H1355.08V364.49H1372.4Z" fill="black"/>
<path d="M1372.4 382.29V371.12H1355.08V382.29H1372.4Z" fill="black"/>
<path d="M1372.4 400.08V388.91H1355.08V400.08H1372.4Z" fill="black"/>
<path d="M1276.78 407.2H1265.61V424.52H1276.78V407.2Z" fill="black"/>
<path d="M1294.57 407.2H1283.4V424.52H1294.57V407.2Z" fill="black"/>
<path d="M1312.37 407.2H1301.2V424.52H1312.37V407.2Z" fill="black"/>
<path d="M1330.16 407.2H1318.99V424.52H1330.16V407.2Z" fill="black"/>
<path d="M1347.96 407.2H1336.79V424.52H1347.96V407.2Z" fill="black"/>
<path d="M980.5 338.43H980.85V338.24H980.7L980.5 338.43Z" fill="black"/>
</svg>
