<svg width="154" height="102" viewBox="0 0 154 102" fill="none" xmlns="http://www.w3.org/2000/svg">
<path fill-rule="evenodd" clip-rule="evenodd" d="M5 46C2.23857 46 -2.34999e-06 48.2386 -2.22928e-06 51C-2.10858e-06 53.7614 2.23857 56 5 56L137.482 56L102.347 93.5856C100.462 95.6029 100.568 98.7669 102.586 100.653C104.603 102.538 107.767 102.432 109.653 100.414L151.376 55.7802C153.891 53.0896 153.891 48.9103 151.376 46.2198L109.653 1.58556C107.767 -0.431729 104.603 -0.538388 102.586 1.34735C100.568 3.23308 100.462 6.39711 102.347 8.4144L137.482 46L5 46Z" fill="#FF0000"/>
</svg>
