<?xml version="1.0" encoding="UTF-8"?><svg id="Layer_1" xmlns="http://www.w3.org/2000/svg" viewBox="0 0 1168.2 62.68"><defs><style>.cls-1,.cls-2{stroke-width:1.66px;}.cls-1,.cls-2,.cls-3,.cls-4{stroke:#fff;stroke-miterlimit:10;}.cls-1,.cls-3,.cls-4{fill:none;}.cls-2{fill:#fff;}.cls-3{stroke-width:2.19px;}.cls-4{stroke-width:1.78px;}</style></defs><g id="timeline"><path id="line" class="cls-4" d="m41.36,31.54h166.95"/><path id="line_2" class="cls-4" d="m228.93,31.54h166.95"/><path id="line_3" class="cls-4" d="m416.5,31.54h166.95"/><path id="line_4" class="cls-4" d="m604.07,31.54h166.95"/><path id="line_5" class="cls-4" d="m791.64,31.54h166.95"/><path id="line_6" class="cls-4" d="m979.21,31.54h166.95"/><path id="stage1button" class="cls-1" d="m31.05,41.56c5.7,0,10.31-4.62,10.31-10.41s-4.62-10.41-10.31-10.41-10.31,4.62-10.31,10.41,4.62,10.41,10.31,10.41Z"/><path id="stage2button" class="cls-1" d="m218.72,41.56c5.7,0,10.31-4.62,10.31-10.41s-4.62-10.41-10.31-10.41-10.31,4.62-10.31,10.41,4.62,10.41,10.31,10.41Z"/><path id="stage3button" class="cls-1" d="m406.39,41.56c5.7,0,10.31-4.62,10.31-10.41s-4.62-10.41-10.31-10.41-10.31,4.62-10.31,10.41,4.62,10.41,10.31,10.41Z"/><path id="stage4button" class="cls-1" d="m594.05,41.56c5.7,0,10.31-4.62,10.31-10.41s-4.62-10.41-10.31-10.41-10.31,4.62-10.31,10.41,4.62,10.41,10.31,10.41Z"/><path id="stage5button" class="cls-1" d="m781.72,41.56c5.7,0,10.31-4.62,10.31-10.41s-4.62-10.41-10.31-10.41-10.31,4.62-10.31,10.41,4.62,10.41,10.31,10.41Z"/><path id="stage6button" class="cls-1" d="m969.39,41.56c5.7,0,10.31-4.62,10.31-10.41s-4.62-10.41-10.31-10.41-10.31,4.62-10.31,10.41,4.62,10.41,10.31,10.41Z"/><path id="stage7button" class="cls-1" d="m1157.06,42.54c5.7,0,10.31-4.62,10.31-10.41s-4.62-10.41-10.31-10.41-10.31,4.62-10.31,10.41,4.62,10.41,10.31,10.41Z"/><path id="motionline" class="cls-4" d="m30.56,31.54h1126.41"/><path id="CurrentCirclePlanet" class="cls-2" d="m49.71,15.83c3.54,0,6.38-2.85,6.38-6.38s-2.85-6.38-6.38-6.38-6.38,2.85-6.38,6.38,2.85,6.38,6.38,6.38Z"/><path id="CurrentCircleLine" class="cls-3" d="m31.05,61.59c16.5,0,29.95-13.55,29.95-30.25S47.55,1.09,31.05,1.09,1.09,14.65,1.09,31.34s13.45,30.25,29.95,30.25Z"/><path id="Inner_CurrentCircle" class="cls-2" d="m31.05,41.56c5.7,0,10.31-4.62,10.31-10.41s-4.62-10.41-10.31-10.41-10.31,4.62-10.31,10.41,4.62,10.41,10.31,10.41Z"/></g></svg>